<?xml version="1.0" encoding="utf-8" standalone="no"?>
<!DOCTYPE svg PUBLIC "-//W3C//DTD SVG 1.1//EN"
  "http://www.w3.org/Graphics/SVG/1.1/DTD/svg11.dtd">
<svg xmlns:xlink="http://www.w3.org/1999/xlink" width="1008pt" height="288pt" viewBox="0 0 1008 288" xmlns="http://www.w3.org/2000/svg" version="1.1">
 <metadata>
  <rdf:RDF xmlns:dc="http://purl.org/dc/elements/1.1/" xmlns:cc="http://creativecommons.org/ns#" xmlns:rdf="http://www.w3.org/1999/02/22-rdf-syntax-ns#">
   <cc:Work>
    <dc:type rdf:resource="http://purl.org/dc/dcmitype/StillImage"/>
    <dc:date>2026-06-30T21:27:18.290156</dc:date>
    <dc:format>image/svg+xml</dc:format>
    <dc:creator>
     <cc:Agent>
      <dc:title>Matplotlib v3.9.4, https://matplotlib.org/</dc:title>
     </cc:Agent>
    </dc:creator>
   </cc:Work>
  </rdf:RDF>
 </metadata>
 <defs>
  <style type="text/css">*{stroke-linejoin: round; stroke-linecap: butt}</style>
 </defs>
 <g id="figure_1">
  <g id="patch_1">
   <path d="M 0 288 
L 1008 288 
L 1008 0 
L 0 0 
z
" style="fill: #ffffff"/>
  </g>
  <g id="axes_1">
   <g id="patch_2">
    <path d="M 55.28 241.72 
L 997.2 241.72 
L 997.2 28.32 
L 55.28 28.32 
z
" style="fill: #ffffff"/>
   </g>
   <g id="patch_3">
    <path d="M 55.28 232.02 
L 997.2 232.02 
L 997.2 222.708 
L 55.28 222.708 
z
" clip-path="url(#p077344eae4)" style="fill: #008000; opacity: 0.2"/>
   </g>
   <g id="patch_4">
    <path d="M 55.28 222.708 
L 997.2 222.708 
L 997.2 203.308 
L 55.28 203.308 
z
" clip-path="url(#p077344eae4)" style="fill: #ffff00; opacity: 0.2"/>
   </g>
   <g id="patch_5">
    <path d="M 55.28 203.308 
L 997.2 203.308 
L 997.2 189.34 
L 55.28 189.34 
z
" clip-path="url(#p077344eae4)" style="fill: #ffa500; opacity: 0.2"/>
   </g>
   <g id="patch_6">
    <path d="M 55.28 189.34 
L 997.2 189.34 
L 997.2 115.62 
L 55.28 115.62 
z
" clip-path="url(#p077344eae4)" style="fill: #ff0000; opacity: 0.2"/>
   </g>
   <g id="patch_7">
    <path d="M 55.28 115.62 
L 997.2 115.62 
L 997.2 38.02 
L 55.28 38.02 
z
" clip-path="url(#p077344eae4)" style="fill: #800080; opacity: 0.2"/>
   </g>
   <g id="matplotlib.axis_1">
    <g id="xtick_1">
     <g id="line2d_1">
      <defs>
       <path id="m7283e1ab83" d="M 0 0 
L 0 3.5 
" style="stroke: #000000; stroke-width: 0.8"/>
      </defs>
      <g>
       <use xlink:href="#m7283e1ab83" x="135.489528" y="241.72" style="stroke: #000000; stroke-width: 0.8"/>
      </g>
     </g>
    </g>
    <g id="xtick_2">
     <g id="line2d_2">
      <g>
       <use xlink:href="#m7283e1ab83" x="265.559033" y="241.72" style="stroke: #000000; stroke-width: 0.8"/>
      </g>
     </g>
    </g>
    <g id="xtick_3">
     <g id="line2d_3">
      <g>
       <use xlink:href="#m7283e1ab83" x="395.628539" y="241.72" style="stroke: #000000; stroke-width: 0.8"/>
      </g>
     </g>
    </g>
    <g id="xtick_4">
     <g id="line2d_4">
      <g>
       <use xlink:href="#m7283e1ab83" x="525.698044" y="241.72" style="stroke: #000000; stroke-width: 0.8"/>
      </g>
     </g>
    </g>
    <g id="xtick_5">
     <g id="line2d_5">
      <g>
       <use xlink:href="#m7283e1ab83" x="655.767549" y="241.72" style="stroke: #000000; stroke-width: 0.8"/>
      </g>
     </g>
    </g>
    <g id="xtick_6">
     <g id="line2d_6">
      <g>
       <use xlink:href="#m7283e1ab83" x="785.837054" y="241.72" style="stroke: #000000; stroke-width: 0.8"/>
      </g>
     </g>
    </g>
    <g id="xtick_7">
     <g id="line2d_7">
      <g>
       <use xlink:href="#m7283e1ab83" x="915.906559" y="241.72" style="stroke: #000000; stroke-width: 0.8"/>
      </g>
     </g>
    </g>
    <g id="text_1">
     <!-- Tiempo -->
     <g transform="translate(498.539219 260.617656) scale(0.15 -0.15)">
      <defs>
       <path id="DejaVuSans-54" d="M -19 4666 
L 3928 4666 
L 3928 4134 
L 2272 4134 
L 2272 0 
L 1638 0 
L 1638 4134 
L -19 4134 
L -19 4666 
z
" transform="scale(0.015625)"/>
       <path id="DejaVuSans-69" d="M 603 3500 
L 1178 3500 
L 1178 0 
L 603 0 
L 603 3500 
z
M 603 4863 
L 1178 4863 
L 1178 4134 
L 603 4134 
L 603 4863 
z
" transform="scale(0.015625)"/>
       <path id="DejaVuSans-65" d="M 3597 1894 
L 3597 1613 
L 953 1613 
Q 991 1019 1311 708 
Q 1631 397 2203 397 
Q 2534 397 2845 478 
Q 3156 559 3463 722 
L 3463 178 
Q 3153 47 2828 -22 
Q 2503 -91 2169 -91 
Q 1331 -91 842 396 
Q 353 884 353 1716 
Q 353 2575 817 3079 
Q 1281 3584 2069 3584 
Q 2775 3584 3186 3129 
Q 3597 2675 3597 1894 
z
M 3022 2063 
Q 3016 2534 2758 2815 
Q 2500 3097 2075 3097 
Q 1594 3097 1305 2825 
Q 1016 2553 972 2059 
L 3022 2063 
z
" transform="scale(0.015625)"/>
       <path id="DejaVuSans-6d" d="M 3328 2828 
Q 3544 3216 3844 3400 
Q 4144 3584 4550 3584 
Q 5097 3584 5394 3201 
Q 5691 2819 5691 2113 
L 5691 0 
L 5113 0 
L 5113 2094 
Q 5113 2597 4934 2840 
Q 4756 3084 4391 3084 
Q 3944 3084 3684 2787 
Q 3425 2491 3425 1978 
L 3425 0 
L 2847 0 
L 2847 2094 
Q 2847 2600 2669 2842 
Q 2491 3084 2119 3084 
Q 1678 3084 1418 2786 
Q 1159 2488 1159 1978 
L 1159 0 
L 581 0 
L 581 3500 
L 1159 3500 
L 1159 2956 
Q 1356 3278 1631 3431 
Q 1906 3584 2284 3584 
Q 2666 3584 2933 3390 
Q 3200 3197 3328 2828 
z
" transform="scale(0.015625)"/>
       <path id="DejaVuSans-70" d="M 1159 525 
L 1159 -1331 
L 581 -1331 
L 581 3500 
L 1159 3500 
L 1159 2969 
Q 1341 3281 1617 3432 
Q 1894 3584 2278 3584 
Q 2916 3584 3314 3078 
Q 3713 2572 3713 1747 
Q 3713 922 3314 415 
Q 2916 -91 2278 -91 
Q 1894 -91 1617 61 
Q 1341 213 1159 525 
z
M 3116 1747 
Q 3116 2381 2855 2742 
Q 2594 3103 2138 3103 
Q 1681 3103 1420 2742 
Q 1159 2381 1159 1747 
Q 1159 1113 1420 752 
Q 1681 391 2138 391 
Q 2594 391 2855 752 
Q 3116 1113 3116 1747 
z
" transform="scale(0.015625)"/>
       <path id="DejaVuSans-6f" d="M 1959 3097 
Q 1497 3097 1228 2736 
Q 959 2375 959 1747 
Q 959 1119 1226 758 
Q 1494 397 1959 397 
Q 2419 397 2687 759 
Q 2956 1122 2956 1747 
Q 2956 2369 2687 2733 
Q 2419 3097 1959 3097 
z
M 1959 3584 
Q 2709 3584 3137 3096 
Q 3566 2609 3566 1747 
Q 3566 888 3137 398 
Q 2709 -91 1959 -91 
Q 1206 -91 779 398 
Q 353 888 353 1747 
Q 353 2609 779 3096 
Q 1206 3584 1959 3584 
z
" transform="scale(0.015625)"/>
      </defs>
      <use xlink:href="#DejaVuSans-54"/>
      <use xlink:href="#DejaVuSans-69" x="57.958984"/>
      <use xlink:href="#DejaVuSans-65" x="85.742188"/>
      <use xlink:href="#DejaVuSans-6d" x="147.265625"/>
      <use xlink:href="#DejaVuSans-70" x="244.677734"/>
      <use xlink:href="#DejaVuSans-6f" x="308.154297"/>
     </g>
    </g>
   </g>
   <g id="matplotlib.axis_2">
    <g id="ytick_1">
     <g id="line2d_8">
      <defs>
       <path id="m87b9094061" d="M 0 0 
L -3.5 0 
" style="stroke: #000000; stroke-width: 0.8"/>
      </defs>
      <g>
       <use xlink:href="#m87b9094061" x="55.28" y="232.02" style="stroke: #000000; stroke-width: 0.8"/>
      </g>
     </g>
     <g id="text_2">
      <!-- 0 -->
      <g transform="translate(38.73625 237.718828) scale(0.15 -0.15)">
       <defs>
        <path id="DejaVuSans-30" d="M 2034 4250 
Q 1547 4250 1301 3770 
Q 1056 3291 1056 2328 
Q 1056 1369 1301 889 
Q 1547 409 2034 409 
Q 2525 409 2770 889 
Q 3016 1369 3016 2328 
Q 3016 3291 2770 3770 
Q 2525 4250 2034 4250 
z
M 2034 4750 
Q 2819 4750 3233 4129 
Q 3647 3509 3647 2328 
Q 3647 1150 3233 529 
Q 2819 -91 2034 -91 
Q 1250 -91 836 529 
Q 422 1150 422 2328 
Q 422 3509 836 4129 
Q 1250 4750 2034 4750 
z
" transform="scale(0.015625)"/>
       </defs>
       <use xlink:href="#DejaVuSans-30"/>
      </g>
     </g>
    </g>
    <g id="ytick_2">
     <g id="line2d_9">
      <g>
       <use xlink:href="#m87b9094061" x="55.28" y="193.22" style="stroke: #000000; stroke-width: 0.8"/>
      </g>
     </g>
     <g id="text_3">
      <!-- 50 -->
      <g transform="translate(29.1925 198.918828) scale(0.15 -0.15)">
       <defs>
        <path id="DejaVuSans-35" d="M 691 4666 
L 3169 4666 
L 3169 4134 
L 1269 4134 
L 1269 2991 
Q 1406 3038 1543 3061 
Q 1681 3084 1819 3084 
Q 2600 3084 3056 2656 
Q 3513 2228 3513 1497 
Q 3513 744 3044 326 
Q 2575 -91 1722 -91 
Q 1428 -91 1123 -41 
Q 819 9 494 109 
L 494 744 
Q 775 591 1075 516 
Q 1375 441 1709 441 
Q 2250 441 2565 725 
Q 2881 1009 2881 1497 
Q 2881 1984 2565 2268 
Q 2250 2553 1709 2553 
Q 1456 2553 1204 2497 
Q 953 2441 691 2322 
L 691 4666 
z
" transform="scale(0.015625)"/>
       </defs>
       <use xlink:href="#DejaVuSans-35"/>
       <use xlink:href="#DejaVuSans-30" x="63.623047"/>
      </g>
     </g>
    </g>
    <g id="ytick_3">
     <g id="line2d_10">
      <g>
       <use xlink:href="#m87b9094061" x="55.28" y="154.42" style="stroke: #000000; stroke-width: 0.8"/>
      </g>
     </g>
     <g id="text_4">
      <!-- 100 -->
      <g transform="translate(19.64875 160.118828) scale(0.15 -0.15)">
       <defs>
        <path id="DejaVuSans-31" d="M 794 531 
L 1825 531 
L 1825 4091 
L 703 3866 
L 703 4441 
L 1819 4666 
L 2450 4666 
L 2450 531 
L 3481 531 
L 3481 0 
L 794 0 
L 794 531 
z
" transform="scale(0.015625)"/>
       </defs>
       <use xlink:href="#DejaVuSans-31"/>
       <use xlink:href="#DejaVuSans-30" x="63.623047"/>
       <use xlink:href="#DejaVuSans-30" x="127.246094"/>
      </g>
     </g>
    </g>
    <g id="ytick_4">
     <g id="line2d_11">
      <g>
       <use xlink:href="#m87b9094061" x="55.28" y="115.62" style="stroke: #000000; stroke-width: 0.8"/>
      </g>
     </g>
     <g id="text_5">
      <!-- 150 -->
      <g transform="translate(19.64875 121.318828) scale(0.15 -0.15)">
       <use xlink:href="#DejaVuSans-31"/>
       <use xlink:href="#DejaVuSans-35" x="63.623047"/>
       <use xlink:href="#DejaVuSans-30" x="127.246094"/>
      </g>
     </g>
    </g>
    <g id="ytick_5">
     <g id="line2d_12">
      <g>
       <use xlink:href="#m87b9094061" x="55.28" y="76.82" style="stroke: #000000; stroke-width: 0.8"/>
      </g>
     </g>
     <g id="text_6">
      <!-- 200 -->
      <g transform="translate(19.64875 82.518828) scale(0.15 -0.15)">
       <defs>
        <path id="DejaVuSans-32" d="M 1228 531 
L 3431 531 
L 3431 0 
L 469 0 
L 469 531 
Q 828 903 1448 1529 
Q 2069 2156 2228 2338 
Q 2531 2678 2651 2914 
Q 2772 3150 2772 3378 
Q 2772 3750 2511 3984 
Q 2250 4219 1831 4219 
Q 1534 4219 1204 4116 
Q 875 4013 500 3803 
L 500 4441 
Q 881 4594 1212 4672 
Q 1544 4750 1819 4750 
Q 2544 4750 2975 4387 
Q 3406 4025 3406 3419 
Q 3406 3131 3298 2873 
Q 3191 2616 2906 2266 
Q 2828 2175 2409 1742 
Q 1991 1309 1228 531 
z
" transform="scale(0.015625)"/>
       </defs>
       <use xlink:href="#DejaVuSans-32"/>
       <use xlink:href="#DejaVuSans-30" x="63.623047"/>
       <use xlink:href="#DejaVuSans-30" x="127.246094"/>
      </g>
     </g>
    </g>
    <g id="ytick_6">
     <g id="line2d_13">
      <g>
       <use xlink:href="#m87b9094061" x="55.28" y="38.02" style="stroke: #000000; stroke-width: 0.8"/>
      </g>
     </g>
     <g id="text_7">
      <!-- 250 -->
      <g transform="translate(19.64875 43.718828) scale(0.15 -0.15)">
       <use xlink:href="#DejaVuSans-32"/>
       <use xlink:href="#DejaVuSans-35" x="63.623047"/>
       <use xlink:href="#DejaVuSans-30" x="127.246094"/>
      </g>
     </g>
    </g>
    <g id="text_8">
     <!-- PM2.5 (µg/m³) -->
     <g transform="translate(12.529219 188.548906) rotate(-90) scale(0.15 -0.15)">
      <defs>
       <path id="DejaVuSans-50" d="M 1259 4147 
L 1259 2394 
L 2053 2394 
Q 2494 2394 2734 2622 
Q 2975 2850 2975 3272 
Q 2975 3691 2734 3919 
Q 2494 4147 2053 4147 
L 1259 4147 
z
M 628 4666 
L 2053 4666 
Q 2838 4666 3239 4311 
Q 3641 3956 3641 3272 
Q 3641 2581 3239 2228 
Q 2838 1875 2053 1875 
L 1259 1875 
L 1259 0 
L 628 0 
L 628 4666 
z
" transform="scale(0.015625)"/>
       <path id="DejaVuSans-4d" d="M 628 4666 
L 1569 4666 
L 2759 1491 
L 3956 4666 
L 4897 4666 
L 4897 0 
L 4281 0 
L 4281 4097 
L 3078 897 
L 2444 897 
L 1241 4097 
L 1241 0 
L 628 0 
L 628 4666 
z
" transform="scale(0.015625)"/>
       <path id="DejaVuSans-2e" d="M 684 794 
L 1344 794 
L 1344 0 
L 684 0 
L 684 794 
z
" transform="scale(0.015625)"/>
       <path id="DejaVuSans-20" transform="scale(0.015625)"/>
       <path id="DejaVuSans-28" d="M 1984 4856 
Q 1566 4138 1362 3434 
Q 1159 2731 1159 2009 
Q 1159 1288 1364 580 
Q 1569 -128 1984 -844 
L 1484 -844 
Q 1016 -109 783 600 
Q 550 1309 550 2009 
Q 550 2706 781 3412 
Q 1013 4119 1484 4856 
L 1984 4856 
z
" transform="scale(0.015625)"/>
       <path id="DejaVuSans-b5" d="M 544 -1331 
L 544 3500 
L 1119 3500 
L 1119 1325 
Q 1119 872 1334 640 
Q 1550 409 1972 409 
Q 2434 409 2667 671 
Q 2900 934 2900 1459 
L 2900 3500 
L 3475 3500 
L 3475 806 
Q 3475 619 3529 530 
Q 3584 441 3700 441 
Q 3728 441 3778 458 
Q 3828 475 3916 513 
L 3916 50 
Q 3788 -22 3673 -56 
Q 3559 -91 3450 -91 
Q 3234 -91 3106 31 
Q 2978 153 2931 403 
Q 2775 156 2548 32 
Q 2322 -91 2016 -91 
Q 1697 -91 1473 31 
Q 1250 153 1119 397 
L 1119 -1331 
L 544 -1331 
z
" transform="scale(0.015625)"/>
       <path id="DejaVuSans-67" d="M 2906 1791 
Q 2906 2416 2648 2759 
Q 2391 3103 1925 3103 
Q 1463 3103 1205 2759 
Q 947 2416 947 1791 
Q 947 1169 1205 825 
Q 1463 481 1925 481 
Q 2391 481 2648 825 
Q 2906 1169 2906 1791 
z
M 3481 434 
Q 3481 -459 3084 -895 
Q 2688 -1331 1869 -1331 
Q 1566 -1331 1297 -1286 
Q 1028 -1241 775 -1147 
L 775 -588 
Q 1028 -725 1275 -790 
Q 1522 -856 1778 -856 
Q 2344 -856 2625 -561 
Q 2906 -266 2906 331 
L 2906 616 
Q 2728 306 2450 153 
Q 2172 0 1784 0 
Q 1141 0 747 490 
Q 353 981 353 1791 
Q 353 2603 747 3093 
Q 1141 3584 1784 3584 
Q 2172 3584 2450 3431 
Q 2728 3278 2906 2969 
L 2906 3500 
L 3481 3500 
L 3481 434 
z
" transform="scale(0.015625)"/>
       <path id="DejaVuSans-2f" d="M 1625 4666 
L 2156 4666 
L 531 -594 
L 0 -594 
L 1625 4666 
z
" transform="scale(0.015625)"/>
       <path id="DejaVuSans-b3" d="M 1638 3500 
Q 1925 3444 2083 3273 
Q 2241 3103 2241 2847 
Q 2241 2459 1944 2250 
Q 1647 2041 1094 2041 
Q 916 2041 720 2073 
Q 525 2106 306 2169 
L 306 2547 
Q 469 2463 655 2422 
Q 841 2381 1050 2381 
Q 1391 2381 1578 2504 
Q 1766 2628 1766 2847 
Q 1766 3078 1592 3197 
Q 1419 3316 1081 3316 
L 813 3316 
L 813 3653 
L 1106 3653 
Q 1400 3653 1551 3751 
Q 1703 3850 1703 4038 
Q 1703 4219 1547 4314 
Q 1391 4409 1094 4409 
Q 969 4409 809 4381 
Q 650 4353 397 4281 
L 397 4641 
Q 625 4694 825 4722 
Q 1025 4750 1197 4750 
Q 1647 4750 1911 4565 
Q 2175 4381 2175 4072 
Q 2175 3856 2034 3706 
Q 1894 3556 1638 3500 
z
" transform="scale(0.015625)"/>
       <path id="DejaVuSans-29" d="M 513 4856 
L 1013 4856 
Q 1481 4119 1714 3412 
Q 1947 2706 1947 2009 
Q 1947 1309 1714 600 
Q 1481 -109 1013 -844 
L 513 -844 
Q 928 -128 1133 580 
Q 1338 1288 1338 2009 
Q 1338 2731 1133 3434 
Q 928 4138 513 4856 
z
" transform="scale(0.015625)"/>
      </defs>
      <use xlink:href="#DejaVuSans-50"/>
      <use xlink:href="#DejaVuSans-4d" x="60.302734"/>
      <use xlink:href="#DejaVuSans-32" x="146.582031"/>
      <use xlink:href="#DejaVuSans-2e" x="210.205078"/>
      <use xlink:href="#DejaVuSans-35" x="241.992188"/>
      <use xlink:href="#DejaVuSans-20" x="305.615234"/>
      <use xlink:href="#DejaVuSans-28" x="337.402344"/>
      <use xlink:href="#DejaVuSans-b5" x="376.416016"/>
      <use xlink:href="#DejaVuSans-67" x="440.039062"/>
      <use xlink:href="#DejaVuSans-2f" x="503.515625"/>
      <use xlink:href="#DejaVuSans-6d" x="537.207031"/>
      <use xlink:href="#DejaVuSans-b3" x="634.619141"/>
      <use xlink:href="#DejaVuSans-29" x="674.707031"/>
     </g>
    </g>
   </g>
   <g id="line2d_14">
    <path d="M 55.28 221.156 
L 56.363913 221.156 
L 57.447825 220.38 
L 58.531738 218.828 
L 59.61565 218.052 
L 60.699563 218.828 
L 61.783475 218.828 
L 62.867388 221.156 
L 63.9513 221.932 
L 65.035213 223.484 
L 66.119125 222.708 
L 68.286951 218.052 
L 69.370863 216.5 
L 71.538688 216.5 
L 72.622601 217.276 
L 74.790426 221.932 
L 75.874338 225.036 
L 76.958251 226.588 
L 78.042163 226.588 
L 79.126076 225.036 
L 80.209989 222.708 
L 81.293901 221.156 
L 82.377814 220.38 
L 83.461726 221.156 
L 84.545639 222.708 
L 85.629551 221.932 
L 86.713464 222.708 
L 87.797376 221.156 
L 88.881289 221.932 
L 89.965201 223.484 
L 91.049114 223.484 
L 92.133026 222.708 
L 93.216939 222.708 
L 94.300852 221.932 
L 95.384764 220.38 
L 96.468677 218.052 
L 98.636502 216.5 
L 99.720414 216.5 
L 100.804327 219.604 
L 101.888239 221.156 
L 104.056064 219.604 
L 105.139977 218.052 
L 106.22389 218.052 
L 107.307802 216.5 
L 108.391715 218.052 
L 109.475627 220.38 
L 110.55954 221.932 
L 112.727365 221.932 
L 113.811277 219.604 
L 114.89519 219.604 
L 115.979102 218.828 
L 117.063015 218.828 
L 119.23084 214.172 
L 120.314753 212.62 
L 121.398665 214.172 
L 122.482578 214.172 
L 123.56649 212.62 
L 124.650403 216.5 
L 126.818228 221.156 
L 127.90214 221.932 
L 128.986053 219.604 
L 130.069965 216.5 
L 132.237791 213.396 
L 135.489528 213.396 
L 136.573441 197.876 
L 137.657353 173.82 
L 138.741266 173.82 
L 139.825178 180.028 
L 140.909091 188.564 
L 141.993003 199.428 
L 143.076916 207.188 
L 145.244741 216.5 
L 146.328654 218.052 
L 147.412566 220.38 
L 149.580391 223.484 
L 151.748216 223.484 
L 152.832129 222.708 
L 153.916041 219.604 
L 154.999954 219.604 
L 156.083866 220.38 
L 157.167779 224.26 
L 159.335604 227.364 
L 162.587342 227.364 
L 166.922992 230.468 
L 176.678205 230.468 
L 177.762117 229.692 
L 179.929942 229.692 
L 181.013855 230.468 
L 185.349505 230.468 
L 186.433418 231.244 
L 188.601243 231.244 
L 189.685155 230.468 
L 190.769068 230.468 
L 191.85298 229.692 
L 194.020806 229.692 
L 195.104718 230.468 
L 196.188631 230.468 
L 197.272543 231.244 
L 198.356456 231.244 
L 199.440368 230.468 
L 200.524281 225.812 
L 201.608193 217.276 
L 202.692106 218.052 
L 203.776018 218.052 
L 204.859931 218.828 
L 205.943843 221.156 
L 207.027756 221.156 
L 208.111669 223.484 
L 209.195581 224.26 
L 210.279494 223.484 
L 211.363406 224.26 
L 212.447319 224.26 
L 214.615144 225.812 
L 215.699056 225.036 
L 216.782969 223.484 
L 217.866881 223.484 
L 218.950794 224.26 
L 220.034707 224.26 
L 221.118619 225.812 
L 222.202532 223.484 
L 223.286444 222.708 
L 224.370357 218.828 
L 226.538182 212.62 
L 227.622094 212.62 
L 228.706007 214.172 
L 229.789919 212.62 
L 230.873832 214.172 
L 231.957745 211.844 
L 233.041657 211.068 
L 234.12557 207.188 
L 235.209482 206.412 
L 236.293395 204.084 
L 237.377307 203.308 
L 238.46122 204.86 
L 239.545132 204.084 
L 240.629045 205.636 
L 241.712957 203.308 
L 242.79687 205.636 
L 243.880782 205.636 
L 244.964695 191.668 
L 246.048608 186.236 
L 247.13252 190.116 
L 248.216433 195.548 
L 250.384258 195.548 
L 251.46817 197.1 
L 252.552083 194.772 
L 253.635995 197.1 
L 254.719908 198.652 
L 255.80382 202.532 
L 256.887733 202.532 
L 257.971646 197.876 
L 259.055558 195.548 
L 260.139471 197.1 
L 261.223383 199.428 
L 263.391208 200.98 
L 264.475121 204.86 
L 265.559033 210.292 
L 266.642946 205.636 
L 267.726858 191.668 
L 268.810771 183.908 
L 269.894684 187.012 
L 270.978596 193.22 
L 272.062509 203.308 
L 273.146421 210.292 
L 274.230334 213.396 
L 275.314246 213.396 
L 276.398159 214.172 
L 277.482071 215.724 
L 278.565984 218.052 
L 281.817722 220.38 
L 282.901634 219.604 
L 283.985547 219.604 
L 286.153372 221.156 
L 287.237284 221.156 
L 289.405109 219.604 
L 291.572934 222.708 
L 292.656847 223.484 
L 293.740759 221.932 
L 295.908585 221.932 
L 296.992497 223.484 
L 299.160322 225.036 
L 300.244235 223.484 
L 301.328147 222.708 
L 304.579885 222.708 
L 305.663797 221.156 
L 306.74771 221.156 
L 307.831623 220.38 
L 308.915535 221.156 
L 309.999448 220.38 
L 311.08336 218.828 
L 312.167273 218.828 
L 313.251185 219.604 
L 314.335098 218.052 
L 315.41901 218.828 
L 316.502923 221.932 
L 317.586835 223.484 
L 318.670748 223.484 
L 319.754661 224.26 
L 320.838573 222.708 
L 321.922486 224.26 
L 323.006398 221.932 
L 324.090311 223.484 
L 325.174223 224.26 
L 326.258136 224.26 
L 327.342048 221.156 
L 328.425961 221.156 
L 329.509873 222.708 
L 330.593786 222.708 
L 332.761611 221.156 
L 333.845524 219.604 
L 334.929436 221.932 
L 336.013349 221.156 
L 337.097261 221.932 
L 338.181174 218.828 
L 339.265086 217.276 
L 342.516824 214.948 
L 343.600736 214.948 
L 344.684649 215.724 
L 345.768562 214.948 
L 346.852474 215.724 
L 347.936387 217.276 
L 350.104212 218.828 
L 355.523774 214.948 
L 356.607687 214.948 
L 357.6916 213.396 
L 358.775512 214.172 
L 359.859425 214.172 
L 360.943337 212.62 
L 363.111162 214.172 
L 364.195075 213.396 
L 365.278987 214.948 
L 367.446812 213.396 
L 368.530725 210.292 
L 369.614638 212.62 
L 371.782463 214.172 
L 372.866375 214.172 
L 373.950288 213.396 
L 375.0342 215.724 
L 378.285938 213.396 
L 382.621588 216.5 
L 383.705501 216.5 
L 385.873326 213.396 
L 386.957238 213.396 
L 388.041151 211.844 
L 389.125063 213.396 
L 390.208976 213.396 
L 392.376801 210.292 
L 394.544626 214.948 
L 395.628539 216.5 
L 396.712451 216.5 
L 397.796364 217.276 
L 398.880276 216.5 
L 399.964189 218.052 
L 401.048101 218.052 
L 402.132014 217.276 
L 403.215926 217.276 
L 406.467664 219.604 
L 407.551577 217.276 
L 408.635489 218.052 
L 409.719402 214.172 
L 410.803314 212.62 
L 411.887227 214.172 
L 412.971139 214.172 
L 414.055052 214.948 
L 415.138964 217.276 
L 416.222877 215.724 
L 417.306789 213.396 
L 418.390702 211.844 
L 419.474615 209.516 
L 420.558527 204.86 
L 421.64244 204.86 
L 422.726352 202.532 
L 423.810265 198.652 
L 424.894177 202.532 
L 425.97809 211.068 
L 427.062002 215.724 
L 429.229827 215.724 
L 430.31374 211.844 
L 431.397653 208.74 
L 432.481565 209.516 
L 433.565478 207.188 
L 434.64939 205.636 
L 435.733303 207.964 
L 436.817215 211.844 
L 437.901128 214.172 
L 438.98504 214.172 
L 440.068953 215.724 
L 441.152865 213.396 
L 442.236778 191.668 
L 443.32069 163.732 
L 444.404603 110.964 
L 446.572428 224.26 
L 447.656341 225.812 
L 448.740253 226.588 
L 449.824166 226.588 
L 450.908078 225.036 
L 451.991991 225.812 
L 453.075903 225.036 
L 454.159816 225.036 
L 457.411554 227.364 
L 458.495466 226.588 
L 461.747204 226.588 
L 463.915029 225.036 
L 466.082854 225.036 
L 467.166766 224.26 
L 468.250679 224.26 
L 469.334592 225.036 
L 471.502417 228.14 
L 472.586329 228.14 
L 473.670242 227.364 
L 475.838067 228.916 
L 476.921979 228.14 
L 478.005892 226.588 
L 480.173717 218.828 
L 481.257629 218.828 
L 483.425454 212.62 
L 484.509367 197.1 
L 485.59328 183.908 
L 486.677192 184.684 
L 487.761105 189.34 
L 488.845017 192.444 
L 489.92893 190.892 
L 491.012842 190.892 
L 492.096755 186.236 
L 493.180667 187.788 
L 494.26458 198.652 
L 495.348493 204.084 
L 496.432405 207.964 
L 497.516318 216.5 
L 498.60023 220.38 
L 499.684143 218.828 
L 500.768055 220.38 
L 501.851968 218.052 
L 502.93588 218.052 
L 504.019793 215.724 
L 505.103705 215.724 
L 506.187618 211.844 
L 507.271531 205.636 
L 508.355443 206.412 
L 509.439356 206.412 
L 510.523268 207.964 
L 511.607181 208.74 
L 513.775006 213.396 
L 515.942831 216.5 
L 517.026743 219.604 
L 519.194569 219.604 
L 520.278481 218.052 
L 522.446306 216.5 
L 523.530219 218.052 
L 524.614131 218.052 
L 525.698044 218.828 
L 526.781956 217.276 
L 527.865869 218.052 
L 528.949781 218.052 
L 530.033694 219.604 
L 531.117606 219.604 
L 532.201519 218.828 
L 533.285432 219.604 
L 534.369344 218.828 
L 535.453257 220.38 
L 536.537169 220.38 
L 537.621082 219.604 
L 538.704994 220.38 
L 539.788907 218.828 
L 540.872819 216.5 
L 541.956732 210.292 
L 543.040644 206.412 
L 544.124557 201.756 
L 545.20847 200.204 
L 546.292382 199.428 
L 547.376295 200.204 
L 548.460207 197.876 
L 549.54412 193.996 
L 550.628032 193.22 
L 551.711945 195.548 
L 552.795857 191.668 
L 553.87977 190.892 
L 554.963682 193.996 
L 556.047595 191.668 
L 557.131508 188.564 
L 558.21542 183.908 
L 559.299333 178.476 
L 560.383245 179.252 
L 561.467158 185.46 
L 562.55107 190.116 
L 563.634983 190.892 
L 564.718895 193.22 
L 565.802808 193.996 
L 566.88672 198.652 
L 567.970633 198.652 
L 569.054545 200.204 
L 571.222371 201.756 
L 572.306283 195.548 
L 573.390196 192.444 
L 574.474108 192.444 
L 575.558021 193.22 
L 576.641933 191.668 
L 577.725846 190.892 
L 578.809758 193.996 
L 579.893671 199.428 
L 580.977583 202.532 
L 582.061496 202.532 
L 583.145409 201.756 
L 584.229321 205.636 
L 585.313234 207.964 
L 587.481059 206.412 
L 588.564971 209.516 
L 589.648884 211.068 
L 590.732796 207.188 
L 591.816709 200.98 
L 592.900621 201.756 
L 593.984534 197.876 
L 595.068446 196.324 
L 596.152359 193.996 
L 597.236272 195.548 
L 598.320184 200.98 
L 599.404097 203.308 
L 600.488009 204.084 
L 601.571922 203.308 
L 602.655834 207.964 
L 603.739747 211.844 
L 604.823659 209.516 
L 605.907572 208.74 
L 606.991485 208.74 
L 608.075397 210.292 
L 609.15931 211.068 
L 610.243222 211.068 
L 611.327135 210.292 
L 612.411047 207.964 
L 613.49496 204.084 
L 614.578872 200.98 
L 615.662785 197.1 
L 616.746697 194.772 
L 617.83061 195.548 
L 618.914522 195.548 
L 619.998435 197.876 
L 621.082348 197.1 
L 622.16626 197.876 
L 623.250173 193.996 
L 624.334085 193.22 
L 625.417998 197.1 
L 626.50191 199.428 
L 627.585823 197.876 
L 628.669735 197.876 
L 629.753648 193.996 
L 630.83756 190.892 
L 631.921473 188.564 
L 633.005385 189.34 
L 634.089298 192.444 
L 635.173211 190.892 
L 638.424948 200.204 
L 639.508861 202.532 
L 640.592773 205.636 
L 641.676686 203.308 
L 642.760598 202.532 
L 643.844511 197.876 
L 644.928423 193.996 
L 646.012336 193.996 
L 648.180161 195.548 
L 649.264074 188.564 
L 650.347986 177.7 
L 651.431899 172.268 
L 652.515811 174.596 
L 653.599724 178.476 
L 654.683636 183.908 
L 655.767549 181.58 
L 656.851461 177.7 
L 657.935374 176.924 
L 659.019287 182.356 
L 661.187112 187.012 
L 662.271024 187.788 
L 663.354937 193.22 
L 664.438849 197.876 
L 666.606674 197.876 
L 667.690587 194.772 
L 668.774499 196.324 
L 669.858412 195.548 
L 670.942325 199.428 
L 672.026237 198.652 
L 673.11015 200.98 
L 674.194062 206.412 
L 675.277975 209.516 
L 676.361887 207.188 
L 678.529712 196.324 
L 679.613625 193.22 
L 680.697537 192.444 
L 681.78145 195.548 
L 682.865362 199.428 
L 685.033188 204.084 
L 686.1171 205.636 
L 687.201013 211.068 
L 688.284925 214.172 
L 689.368838 215.724 
L 690.45275 210.292 
L 691.536663 204.084 
L 692.620575 200.98 
L 693.704488 201.756 
L 694.7884 201.756 
L 695.872313 203.308 
L 698.040138 204.86 
L 699.124051 207.964 
L 700.207963 209.516 
L 701.291876 211.844 
L 702.375788 211.844 
L 703.459701 213.396 
L 704.543613 213.396 
L 706.711438 211.844 
L 708.879264 207.188 
L 709.963176 207.964 
L 711.047089 207.188 
L 712.131001 207.188 
L 713.214914 208.74 
L 714.298826 206.412 
L 715.382739 205.636 
L 717.550564 205.636 
L 719.718389 213.396 
L 720.802301 214.948 
L 721.886214 217.276 
L 722.970127 216.5 
L 724.054039 214.172 
L 726.221864 211.068 
L 727.305777 211.844 
L 728.389689 211.844 
L 729.473602 213.396 
L 730.557514 213.396 
L 731.641427 215.724 
L 732.725339 214.172 
L 733.809252 214.948 
L 734.893165 214.948 
L 737.06099 216.5 
L 738.144902 215.724 
L 741.39664 218.052 
L 742.480552 217.276 
L 743.564465 218.052 
L 744.648377 218.052 
L 745.73229 211.844 
L 746.816203 191.668 
L 747.900115 190.116 
L 750.06794 207.964 
L 751.151853 213.396 
L 753.319678 214.948 
L 754.40359 214.948 
L 755.487503 211.844 
L 756.571415 215.724 
L 757.655328 217.276 
L 758.739241 219.604 
L 760.907066 219.604 
L 761.990978 220.38 
L 763.074891 219.604 
L 764.158803 219.604 
L 766.326628 221.156 
L 767.410541 217.276 
L 768.494453 218.828 
L 769.578366 221.156 
L 770.662278 219.604 
L 771.746191 218.828 
L 772.830104 218.828 
L 773.914016 218.052 
L 774.997929 218.052 
L 776.081841 219.604 
L 777.165754 219.604 
L 778.249666 220.38 
L 779.333579 221.932 
L 781.501404 221.932 
L 782.585316 223.484 
L 783.669229 222.708 
L 784.753142 223.484 
L 785.837054 222.708 
L 786.920967 223.484 
L 788.004879 223.484 
L 789.088792 222.708 
L 790.172704 222.708 
L 791.256617 221.932 
L 793.424442 225.036 
L 794.508354 223.484 
L 795.592267 225.036 
L 796.67618 223.484 
L 797.760092 222.708 
L 799.927917 222.708 
L 801.01183 223.484 
L 802.095742 222.708 
L 804.263567 224.26 
L 805.34748 222.708 
L 806.431392 220.38 
L 807.515305 221.156 
L 808.599217 222.708 
L 809.68313 223.484 
L 810.767043 223.484 
L 811.850955 225.036 
L 812.934868 223.484 
L 814.01878 224.26 
L 815.102693 224.26 
L 816.186605 225.812 
L 817.270518 225.036 
L 818.35443 225.812 
L 820.522255 225.812 
L 822.690081 224.26 
L 823.773993 225.036 
L 824.857906 222.708 
L 825.941818 219.604 
L 827.025731 217.276 
L 828.109643 215.724 
L 829.193556 216.5 
L 831.361381 211.844 
L 832.445293 211.068 
L 833.529206 211.844 
L 834.613119 214.172 
L 835.697031 213.396 
L 838.948769 208.74 
L 841.116594 200.98 
L 842.200506 199.428 
L 845.452244 197.1 
L 846.536157 193.996 
L 847.620069 193.22 
L 848.703982 190.116 
L 849.787894 187.788 
L 850.871807 186.236 
L 851.955719 187.788 
L 853.039632 187.788 
L 854.123544 190.892 
L 855.207457 194.772 
L 856.291369 196.324 
L 857.375282 196.324 
L 858.459194 201.756 
L 859.543107 198.652 
L 860.62702 196.324 
L 861.710932 197.1 
L 862.794845 198.652 
L 863.878757 199.428 
L 866.046582 199.428 
L 867.130495 198.652 
L 868.214407 194.772 
L 869.29832 193.996 
L 870.382232 195.548 
L 872.550058 197.1 
L 874.717883 197.1 
L 875.801795 196.324 
L 877.96962 196.324 
L 880.137445 194.772 
L 881.221358 192.444 
L 882.30527 190.892 
L 883.389183 191.668 
L 884.473096 194.772 
L 885.557008 197.1 
L 886.640921 196.324 
L 887.724833 193.996 
L 889.892658 197.1 
L 890.976571 197.876 
L 892.060483 196.324 
L 893.144396 196.324 
L 894.228308 195.548 
L 896.396133 195.548 
L 897.480046 191.668 
L 898.563959 193.22 
L 899.647871 197.1 
L 900.731784 197.1 
L 901.815696 197.876 
L 902.899609 197.1 
L 903.983521 197.1 
L 905.067434 194.772 
L 906.151346 196.324 
L 907.235259 196.324 
L 908.319171 194.772 
L 909.403084 193.996 
L 910.486997 190.116 
L 911.570909 189.34 
L 912.654822 193.22 
L 913.738734 197.876 
L 914.822647 199.428 
L 916.990472 191.668 
L 918.074384 196.324 
L 919.158297 199.428 
L 920.242209 197.876 
L 921.326122 195.548 
L 925.661772 195.548 
L 926.745685 192.444 
L 927.829597 193.996 
L 928.91351 189.34 
L 929.997422 187.012 
L 931.081335 182.356 
L 932.165247 190.116 
L 933.24916 200.98 
L 934.333073 200.98 
L 935.416985 201.756 
L 936.500898 199.428 
L 937.58481 200.204 
L 938.668723 198.652 
L 939.752635 199.428 
L 941.92046 202.532 
L 943.004373 202.532 
L 944.088285 200.98 
L 945.172198 195.548 
L 946.25611 191.668 
L 947.340023 190.116 
L 948.423936 190.116 
L 949.507848 192.444 
L 950.591761 190.892 
L 951.675673 187.012 
L 952.759586 187.788 
L 953.843498 195.548 
L 954.927411 194.772 
L 956.011323 196.324 
L 957.095236 197.1 
L 958.179148 203.308 
L 959.263061 204.084 
L 960.346973 207.964 
L 961.430886 207.964 
L 962.514799 206.412 
L 964.682624 204.86 
L 965.766536 206.412 
L 966.850449 193.996 
L 967.934361 194.772 
L 969.018274 201.756 
L 970.102186 201.756 
L 971.186099 199.428 
L 972.270011 202.532 
L 974.437837 207.188 
L 975.521749 208.74 
L 976.605662 211.844 
L 977.689574 211.068 
L 978.773487 211.844 
L 979.857399 213.396 
L 983.109137 215.724 
L 984.193049 217.276 
L 985.276962 217.276 
L 986.360875 223.484 
L 987.444787 225.812 
L 988.5287 228.916 
L 989.612612 226.588 
L 992.86435 226.588 
L 995.032175 228.14 
L 996.116087 228.14 
L 997.2 227.364 
L 997.2 227.364 
" clip-path="url(#p077344eae4)" style="fill: none; stroke: #1f77b4; stroke-width: 1.5; stroke-linecap: square"/>
   </g>
   <g id="patch_8">
    <path d="M 55.28 241.72 
L 55.28 28.32 
" style="fill: none; stroke: #000000; stroke-width: 0.8; stroke-linejoin: miter; stroke-linecap: square"/>
   </g>
   <g id="patch_9">
    <path d="M 997.2 241.72 
L 997.2 28.32 
" style="fill: none; stroke: #000000; stroke-width: 0.8; stroke-linejoin: miter; stroke-linecap: square"/>
   </g>
   <g id="patch_10">
    <path d="M 55.28 241.72 
L 997.2 241.72 
" style="fill: none; stroke: #000000; stroke-width: 0.8; stroke-linejoin: miter; stroke-linecap: square"/>
   </g>
   <g id="patch_11">
    <path d="M 55.28 28.32 
L 997.2 28.32 
" style="fill: none; stroke: #000000; stroke-width: 0.8; stroke-linejoin: miter; stroke-linecap: square"/>
   </g>
   <g id="text_9">
    <!-- Portal El Dorado - Universidades -->
    <g transform="translate(405.146641 22.32) scale(0.15 -0.15)">
     <defs>
      <path id="DejaVuSans-72" d="M 2631 2963 
Q 2534 3019 2420 3045 
Q 2306 3072 2169 3072 
Q 1681 3072 1420 2755 
Q 1159 2438 1159 1844 
L 1159 0 
L 581 0 
L 581 3500 
L 1159 3500 
L 1159 2956 
Q 1341 3275 1631 3429 
Q 1922 3584 2338 3584 
Q 2397 3584 2469 3576 
Q 2541 3569 2628 3553 
L 2631 2963 
z
" transform="scale(0.015625)"/>
      <path id="DejaVuSans-74" d="M 1172 4494 
L 1172 3500 
L 2356 3500 
L 2356 3053 
L 1172 3053 
L 1172 1153 
Q 1172 725 1289 603 
Q 1406 481 1766 481 
L 2356 481 
L 2356 0 
L 1766 0 
Q 1100 0 847 248 
Q 594 497 594 1153 
L 594 3053 
L 172 3053 
L 172 3500 
L 594 3500 
L 594 4494 
L 1172 4494 
z
" transform="scale(0.015625)"/>
      <path id="DejaVuSans-61" d="M 2194 1759 
Q 1497 1759 1228 1600 
Q 959 1441 959 1056 
Q 959 750 1161 570 
Q 1363 391 1709 391 
Q 2188 391 2477 730 
Q 2766 1069 2766 1631 
L 2766 1759 
L 2194 1759 
z
M 3341 1997 
L 3341 0 
L 2766 0 
L 2766 531 
Q 2569 213 2275 61 
Q 1981 -91 1556 -91 
Q 1019 -91 701 211 
Q 384 513 384 1019 
Q 384 1609 779 1909 
Q 1175 2209 1959 2209 
L 2766 2209 
L 2766 2266 
Q 2766 2663 2505 2880 
Q 2244 3097 1772 3097 
Q 1472 3097 1187 3025 
Q 903 2953 641 2809 
L 641 3341 
Q 956 3463 1253 3523 
Q 1550 3584 1831 3584 
Q 2591 3584 2966 3190 
Q 3341 2797 3341 1997 
z
" transform="scale(0.015625)"/>
      <path id="DejaVuSans-6c" d="M 603 4863 
L 1178 4863 
L 1178 0 
L 603 0 
L 603 4863 
z
" transform="scale(0.015625)"/>
      <path id="DejaVuSans-45" d="M 628 4666 
L 3578 4666 
L 3578 4134 
L 1259 4134 
L 1259 2753 
L 3481 2753 
L 3481 2222 
L 1259 2222 
L 1259 531 
L 3634 531 
L 3634 0 
L 628 0 
L 628 4666 
z
" transform="scale(0.015625)"/>
      <path id="DejaVuSans-44" d="M 1259 4147 
L 1259 519 
L 2022 519 
Q 2988 519 3436 956 
Q 3884 1394 3884 2338 
Q 3884 3275 3436 3711 
Q 2988 4147 2022 4147 
L 1259 4147 
z
M 628 4666 
L 1925 4666 
Q 3281 4666 3915 4102 
Q 4550 3538 4550 2338 
Q 4550 1131 3912 565 
Q 3275 0 1925 0 
L 628 0 
L 628 4666 
z
" transform="scale(0.015625)"/>
      <path id="DejaVuSans-64" d="M 2906 2969 
L 2906 4863 
L 3481 4863 
L 3481 0 
L 2906 0 
L 2906 525 
Q 2725 213 2448 61 
Q 2172 -91 1784 -91 
Q 1150 -91 751 415 
Q 353 922 353 1747 
Q 353 2572 751 3078 
Q 1150 3584 1784 3584 
Q 2172 3584 2448 3432 
Q 2725 3281 2906 2969 
z
M 947 1747 
Q 947 1113 1208 752 
Q 1469 391 1925 391 
Q 2381 391 2643 752 
Q 2906 1113 2906 1747 
Q 2906 2381 2643 2742 
Q 2381 3103 1925 3103 
Q 1469 3103 1208 2742 
Q 947 2381 947 1747 
z
" transform="scale(0.015625)"/>
      <path id="DejaVuSans-2d" d="M 313 2009 
L 1997 2009 
L 1997 1497 
L 313 1497 
L 313 2009 
z
" transform="scale(0.015625)"/>
      <path id="DejaVuSans-55" d="M 556 4666 
L 1191 4666 
L 1191 1831 
Q 1191 1081 1462 751 
Q 1734 422 2344 422 
Q 2950 422 3222 751 
Q 3494 1081 3494 1831 
L 3494 4666 
L 4128 4666 
L 4128 1753 
Q 4128 841 3676 375 
Q 3225 -91 2344 -91 
Q 1459 -91 1007 375 
Q 556 841 556 1753 
L 556 4666 
z
" transform="scale(0.015625)"/>
      <path id="DejaVuSans-6e" d="M 3513 2113 
L 3513 0 
L 2938 0 
L 2938 2094 
Q 2938 2591 2744 2837 
Q 2550 3084 2163 3084 
Q 1697 3084 1428 2787 
Q 1159 2491 1159 1978 
L 1159 0 
L 581 0 
L 581 3500 
L 1159 3500 
L 1159 2956 
Q 1366 3272 1645 3428 
Q 1925 3584 2291 3584 
Q 2894 3584 3203 3211 
Q 3513 2838 3513 2113 
z
" transform="scale(0.015625)"/>
      <path id="DejaVuSans-76" d="M 191 3500 
L 800 3500 
L 1894 563 
L 2988 3500 
L 3597 3500 
L 2284 0 
L 1503 0 
L 191 3500 
z
" transform="scale(0.015625)"/>
      <path id="DejaVuSans-73" d="M 2834 3397 
L 2834 2853 
Q 2591 2978 2328 3040 
Q 2066 3103 1784 3103 
Q 1356 3103 1142 2972 
Q 928 2841 928 2578 
Q 928 2378 1081 2264 
Q 1234 2150 1697 2047 
L 1894 2003 
Q 2506 1872 2764 1633 
Q 3022 1394 3022 966 
Q 3022 478 2636 193 
Q 2250 -91 1575 -91 
Q 1294 -91 989 -36 
Q 684 19 347 128 
L 347 722 
Q 666 556 975 473 
Q 1284 391 1588 391 
Q 1994 391 2212 530 
Q 2431 669 2431 922 
Q 2431 1156 2273 1281 
Q 2116 1406 1581 1522 
L 1381 1569 
Q 847 1681 609 1914 
Q 372 2147 372 2553 
Q 372 3047 722 3315 
Q 1072 3584 1716 3584 
Q 2034 3584 2315 3537 
Q 2597 3491 2834 3397 
z
" transform="scale(0.015625)"/>
     </defs>
     <use xlink:href="#DejaVuSans-50"/>
     <use xlink:href="#DejaVuSans-6f" x="56.677734"/>
     <use xlink:href="#DejaVuSans-72" x="117.859375"/>
     <use xlink:href="#DejaVuSans-74" x="158.972656"/>
     <use xlink:href="#DejaVuSans-61" x="198.181641"/>
     <use xlink:href="#DejaVuSans-6c" x="259.460938"/>
     <use xlink:href="#DejaVuSans-20" x="287.244141"/>
     <use xlink:href="#DejaVuSans-45" x="319.03125"/>
     <use xlink:href="#DejaVuSans-6c" x="382.214844"/>
     <use xlink:href="#DejaVuSans-20" x="409.998047"/>
     <use xlink:href="#DejaVuSans-44" x="441.785156"/>
     <use xlink:href="#DejaVuSans-6f" x="518.787109"/>
     <use xlink:href="#DejaVuSans-72" x="579.96875"/>
     <use xlink:href="#DejaVuSans-61" x="621.082031"/>
     <use xlink:href="#DejaVuSans-64" x="682.361328"/>
     <use xlink:href="#DejaVuSans-6f" x="745.837891"/>
     <use xlink:href="#DejaVuSans-20" x="807.019531"/>
     <use xlink:href="#DejaVuSans-2d" x="838.806641"/>
     <use xlink:href="#DejaVuSans-20" x="874.890625"/>
     <use xlink:href="#DejaVuSans-55" x="906.677734"/>
     <use xlink:href="#DejaVuSans-6e" x="979.871094"/>
     <use xlink:href="#DejaVuSans-69" x="1043.25"/>
     <use xlink:href="#DejaVuSans-76" x="1071.033203"/>
     <use xlink:href="#DejaVuSans-65" x="1130.212891"/>
     <use xlink:href="#DejaVuSans-72" x="1191.736328"/>
     <use xlink:href="#DejaVuSans-73" x="1232.849609"/>
     <use xlink:href="#DejaVuSans-69" x="1284.949219"/>
     <use xlink:href="#DejaVuSans-64" x="1312.732422"/>
     <use xlink:href="#DejaVuSans-61" x="1376.208984"/>
     <use xlink:href="#DejaVuSans-64" x="1437.488281"/>
     <use xlink:href="#DejaVuSans-65" x="1500.964844"/>
     <use xlink:href="#DejaVuSans-73" x="1562.488281"/>
    </g>
   </g>
   <g id="legend_1">
    <g id="patch_12">
     <path d="M 668.2095 146.013 
L 987.12 146.013 
Q 990 146.013 990 143.133 
L 990 38.4 
Q 990 35.52 987.12 35.52 
L 668.2095 35.52 
Q 665.3295 35.52 665.3295 38.4 
L 665.3295 143.133 
Q 665.3295 146.013 668.2095 146.013 
z
" style="fill: #ffffff; opacity: 0.8; stroke: #cccccc; stroke-linejoin: miter"/>
    </g>
    <g id="patch_13">
     <path d="M 671.0895 52.22175 
L 699.8895 52.22175 
L 699.8895 42.14175 
L 671.0895 42.14175 
z
" style="fill: #008000; opacity: 0.2"/>
    </g>
    <g id="text_10">
     <!-- Buena -->
     <g transform="translate(711.4095 52.22175) scale(0.144 -0.144)">
      <defs>
       <path id="DejaVuSans-42" d="M 1259 2228 
L 1259 519 
L 2272 519 
Q 2781 519 3026 730 
Q 3272 941 3272 1375 
Q 3272 1813 3026 2020 
Q 2781 2228 2272 2228 
L 1259 2228 
z
M 1259 4147 
L 1259 2741 
L 2194 2741 
Q 2656 2741 2882 2914 
Q 3109 3088 3109 3444 
Q 3109 3797 2882 3972 
Q 2656 4147 2194 4147 
L 1259 4147 
z
M 628 4666 
L 2241 4666 
Q 2963 4666 3353 4366 
Q 3744 4066 3744 3513 
Q 3744 3084 3544 2831 
Q 3344 2578 2956 2516 
Q 3422 2416 3680 2098 
Q 3938 1781 3938 1306 
Q 3938 681 3513 340 
Q 3088 0 2303 0 
L 628 0 
L 628 4666 
z
" transform="scale(0.015625)"/>
       <path id="DejaVuSans-75" d="M 544 1381 
L 544 3500 
L 1119 3500 
L 1119 1403 
Q 1119 906 1312 657 
Q 1506 409 1894 409 
Q 2359 409 2629 706 
Q 2900 1003 2900 1516 
L 2900 3500 
L 3475 3500 
L 3475 0 
L 2900 0 
L 2900 538 
Q 2691 219 2414 64 
Q 2138 -91 1772 -91 
Q 1169 -91 856 284 
Q 544 659 544 1381 
z
M 1991 3584 
L 1991 3584 
z
" transform="scale(0.015625)"/>
      </defs>
      <use xlink:href="#DejaVuSans-42"/>
      <use xlink:href="#DejaVuSans-75" x="68.603516"/>
      <use xlink:href="#DejaVuSans-65" x="131.982422"/>
      <use xlink:href="#DejaVuSans-6e" x="193.505859"/>
      <use xlink:href="#DejaVuSans-61" x="256.884766"/>
     </g>
    </g>
    <g id="patch_14">
     <path d="M 671.0895 73.35825 
L 699.8895 73.35825 
L 699.8895 63.27825 
L 671.0895 63.27825 
z
" style="fill: #ffff00; opacity: 0.2"/>
    </g>
    <g id="text_11">
     <!-- Aceptable -->
     <g transform="translate(711.4095 73.35825) scale(0.144 -0.144)">
      <defs>
       <path id="DejaVuSans-41" d="M 2188 4044 
L 1331 1722 
L 3047 1722 
L 2188 4044 
z
M 1831 4666 
L 2547 4666 
L 4325 0 
L 3669 0 
L 3244 1197 
L 1141 1197 
L 716 0 
L 50 0 
L 1831 4666 
z
" transform="scale(0.015625)"/>
       <path id="DejaVuSans-63" d="M 3122 3366 
L 3122 2828 
Q 2878 2963 2633 3030 
Q 2388 3097 2138 3097 
Q 1578 3097 1268 2742 
Q 959 2388 959 1747 
Q 959 1106 1268 751 
Q 1578 397 2138 397 
Q 2388 397 2633 464 
Q 2878 531 3122 666 
L 3122 134 
Q 2881 22 2623 -34 
Q 2366 -91 2075 -91 
Q 1284 -91 818 406 
Q 353 903 353 1747 
Q 353 2603 823 3093 
Q 1294 3584 2113 3584 
Q 2378 3584 2631 3529 
Q 2884 3475 3122 3366 
z
" transform="scale(0.015625)"/>
       <path id="DejaVuSans-62" d="M 3116 1747 
Q 3116 2381 2855 2742 
Q 2594 3103 2138 3103 
Q 1681 3103 1420 2742 
Q 1159 2381 1159 1747 
Q 1159 1113 1420 752 
Q 1681 391 2138 391 
Q 2594 391 2855 752 
Q 3116 1113 3116 1747 
z
M 1159 2969 
Q 1341 3281 1617 3432 
Q 1894 3584 2278 3584 
Q 2916 3584 3314 3078 
Q 3713 2572 3713 1747 
Q 3713 922 3314 415 
Q 2916 -91 2278 -91 
Q 1894 -91 1617 61 
Q 1341 213 1159 525 
L 1159 0 
L 581 0 
L 581 4863 
L 1159 4863 
L 1159 2969 
z
" transform="scale(0.015625)"/>
      </defs>
      <use xlink:href="#DejaVuSans-41"/>
      <use xlink:href="#DejaVuSans-63" x="66.658203"/>
      <use xlink:href="#DejaVuSans-65" x="121.638672"/>
      <use xlink:href="#DejaVuSans-70" x="183.162109"/>
      <use xlink:href="#DejaVuSans-74" x="246.638672"/>
      <use xlink:href="#DejaVuSans-61" x="285.847656"/>
      <use xlink:href="#DejaVuSans-62" x="347.126953"/>
      <use xlink:href="#DejaVuSans-6c" x="410.603516"/>
      <use xlink:href="#DejaVuSans-65" x="438.386719"/>
     </g>
    </g>
    <g id="patch_15">
     <path d="M 671.0895 94.74 
L 699.8895 94.74 
L 699.8895 84.66 
L 671.0895 84.66 
z
" style="fill: #ffa500; opacity: 0.2"/>
    </g>
    <g id="text_12">
     <!-- Dañina a la salud de grupos sensibles -->
     <g transform="translate(711.4095 94.74) scale(0.144 -0.144)">
      <defs>
       <path id="DejaVuSans-f1" d="M 3513 2113 
L 3513 0 
L 2938 0 
L 2938 2094 
Q 2938 2591 2744 2837 
Q 2550 3084 2163 3084 
Q 1697 3084 1428 2787 
Q 1159 2491 1159 1978 
L 1159 0 
L 581 0 
L 581 3500 
L 1159 3500 
L 1159 2956 
Q 1366 3272 1645 3428 
Q 1925 3584 2291 3584 
Q 2894 3584 3203 3211 
Q 3513 2838 3513 2113 
z
M 2060 4281 
L 1881 4453 
Q 1813 4516 1761 4545 
Q 1710 4575 1669 4575 
Q 1550 4575 1494 4461 
Q 1438 4347 1431 4091 
L 1041 4091 
Q 1047 4513 1206 4742 
Q 1366 4972 1650 4972 
Q 1769 4972 1869 4928 
Q 1969 4884 2085 4781 
L 2263 4609 
Q 2331 4547 2383 4517 
Q 2435 4488 2475 4488 
Q 2594 4488 2650 4602 
Q 2706 4716 2713 4972 
L 3103 4972 
Q 3097 4550 2937 4320 
Q 2778 4091 2494 4091 
Q 2375 4091 2275 4134 
Q 2175 4178 2060 4281 
z
" transform="scale(0.015625)"/>
      </defs>
      <use xlink:href="#DejaVuSans-44"/>
      <use xlink:href="#DejaVuSans-61" x="77.001953"/>
      <use xlink:href="#DejaVuSans-f1" x="138.28125"/>
      <use xlink:href="#DejaVuSans-69" x="201.660156"/>
      <use xlink:href="#DejaVuSans-6e" x="229.443359"/>
      <use xlink:href="#DejaVuSans-61" x="292.822266"/>
      <use xlink:href="#DejaVuSans-20" x="354.101562"/>
      <use xlink:href="#DejaVuSans-61" x="385.888672"/>
      <use xlink:href="#DejaVuSans-20" x="447.167969"/>
      <use xlink:href="#DejaVuSans-6c" x="478.955078"/>
      <use xlink:href="#DejaVuSans-61" x="506.738281"/>
      <use xlink:href="#DejaVuSans-20" x="568.017578"/>
      <use xlink:href="#DejaVuSans-73" x="599.804688"/>
      <use xlink:href="#DejaVuSans-61" x="651.904297"/>
      <use xlink:href="#DejaVuSans-6c" x="713.183594"/>
      <use xlink:href="#DejaVuSans-75" x="740.966797"/>
      <use xlink:href="#DejaVuSans-64" x="804.345703"/>
      <use xlink:href="#DejaVuSans-20" x="867.822266"/>
      <use xlink:href="#DejaVuSans-64" x="899.609375"/>
      <use xlink:href="#DejaVuSans-65" x="963.085938"/>
      <use xlink:href="#DejaVuSans-20" x="1024.609375"/>
      <use xlink:href="#DejaVuSans-67" x="1056.396484"/>
      <use xlink:href="#DejaVuSans-72" x="1119.873047"/>
      <use xlink:href="#DejaVuSans-75" x="1160.986328"/>
      <use xlink:href="#DejaVuSans-70" x="1224.365234"/>
      <use xlink:href="#DejaVuSans-6f" x="1287.841797"/>
      <use xlink:href="#DejaVuSans-73" x="1349.023438"/>
      <use xlink:href="#DejaVuSans-20" x="1401.123047"/>
      <use xlink:href="#DejaVuSans-73" x="1432.910156"/>
      <use xlink:href="#DejaVuSans-65" x="1485.009766"/>
      <use xlink:href="#DejaVuSans-6e" x="1546.533203"/>
      <use xlink:href="#DejaVuSans-73" x="1609.912109"/>
      <use xlink:href="#DejaVuSans-69" x="1662.011719"/>
      <use xlink:href="#DejaVuSans-62" x="1689.794922"/>
      <use xlink:href="#DejaVuSans-6c" x="1753.271484"/>
      <use xlink:href="#DejaVuSans-65" x="1781.054688"/>
      <use xlink:href="#DejaVuSans-73" x="1842.578125"/>
     </g>
    </g>
    <g id="patch_16">
     <path d="M 671.0895 115.8765 
L 699.8895 115.8765 
L 699.8895 105.7965 
L 671.0895 105.7965 
z
" style="fill: #ff0000; opacity: 0.2"/>
    </g>
    <g id="text_13">
     <!-- Dañina a la salud -->
     <g transform="translate(711.4095 115.8765) scale(0.144 -0.144)">
      <use xlink:href="#DejaVuSans-44"/>
      <use xlink:href="#DejaVuSans-61" x="77.001953"/>
      <use xlink:href="#DejaVuSans-f1" x="138.28125"/>
      <use xlink:href="#DejaVuSans-69" x="201.660156"/>
      <use xlink:href="#DejaVuSans-6e" x="229.443359"/>
      <use xlink:href="#DejaVuSans-61" x="292.822266"/>
      <use xlink:href="#DejaVuSans-20" x="354.101562"/>
      <use xlink:href="#DejaVuSans-61" x="385.888672"/>
      <use xlink:href="#DejaVuSans-20" x="447.167969"/>
      <use xlink:href="#DejaVuSans-6c" x="478.955078"/>
      <use xlink:href="#DejaVuSans-61" x="506.738281"/>
      <use xlink:href="#DejaVuSans-20" x="568.017578"/>
      <use xlink:href="#DejaVuSans-73" x="599.804688"/>
      <use xlink:href="#DejaVuSans-61" x="651.904297"/>
      <use xlink:href="#DejaVuSans-6c" x="713.183594"/>
      <use xlink:href="#DejaVuSans-75" x="740.966797"/>
      <use xlink:href="#DejaVuSans-64" x="804.345703"/>
     </g>
    </g>
    <g id="patch_17">
     <path d="M 671.0895 137.25825 
L 699.8895 137.25825 
L 699.8895 127.17825 
L 671.0895 127.17825 
z
" style="fill: #800080; opacity: 0.2"/>
    </g>
    <g id="text_14">
     <!-- Muy dañina a la salud -->
     <g transform="translate(711.4095 137.25825) scale(0.144 -0.144)">
      <defs>
       <path id="DejaVuSans-79" d="M 2059 -325 
Q 1816 -950 1584 -1140 
Q 1353 -1331 966 -1331 
L 506 -1331 
L 506 -850 
L 844 -850 
Q 1081 -850 1212 -737 
Q 1344 -625 1503 -206 
L 1606 56 
L 191 3500 
L 800 3500 
L 1894 763 
L 2988 3500 
L 3597 3500 
L 2059 -325 
z
" transform="scale(0.015625)"/>
      </defs>
      <use xlink:href="#DejaVuSans-4d"/>
      <use xlink:href="#DejaVuSans-75" x="86.279297"/>
      <use xlink:href="#DejaVuSans-79" x="149.658203"/>
      <use xlink:href="#DejaVuSans-20" x="208.837891"/>
      <use xlink:href="#DejaVuSans-64" x="240.625"/>
      <use xlink:href="#DejaVuSans-61" x="304.101562"/>
      <use xlink:href="#DejaVuSans-f1" x="365.380859"/>
      <use xlink:href="#DejaVuSans-69" x="428.759766"/>
      <use xlink:href="#DejaVuSans-6e" x="456.542969"/>
      <use xlink:href="#DejaVuSans-61" x="519.921875"/>
      <use xlink:href="#DejaVuSans-20" x="581.201172"/>
      <use xlink:href="#DejaVuSans-61" x="612.988281"/>
      <use xlink:href="#DejaVuSans-20" x="674.267578"/>
      <use xlink:href="#DejaVuSans-6c" x="706.054688"/>
      <use xlink:href="#DejaVuSans-61" x="733.837891"/>
      <use xlink:href="#DejaVuSans-20" x="795.117188"/>
      <use xlink:href="#DejaVuSans-73" x="826.904297"/>
      <use xlink:href="#DejaVuSans-61" x="879.003906"/>
      <use xlink:href="#DejaVuSans-6c" x="940.283203"/>
      <use xlink:href="#DejaVuSans-75" x="968.066406"/>
      <use xlink:href="#DejaVuSans-64" x="1031.445312"/>
     </g>
    </g>
   </g>
  </g>
 </g>
 <defs>
  <clipPath id="p077344eae4">
   <rect x="55.28" y="28.32" width="941.92" height="213.4"/>
  </clipPath>
 </defs>
</svg>
