<?xml version="1.0" encoding="utf-8" standalone="no"?>
<!DOCTYPE svg PUBLIC "-//W3C//DTD SVG 1.1//EN"
  "http://www.w3.org/Graphics/SVG/1.1/DTD/svg11.dtd">
<svg xmlns:xlink="http://www.w3.org/1999/xlink" width="1008pt" height="288pt" viewBox="0 0 1008 288" xmlns="http://www.w3.org/2000/svg" version="1.1">
 <metadata>
  <rdf:RDF xmlns:dc="http://purl.org/dc/elements/1.1/" xmlns:cc="http://creativecommons.org/ns#" xmlns:rdf="http://www.w3.org/1999/02/22-rdf-syntax-ns#">
   <cc:Work>
    <dc:type rdf:resource="http://purl.org/dc/dcmitype/StillImage"/>
    <dc:date>2026-06-30T21:27:18.412722</dc:date>
    <dc:format>image/svg+xml</dc:format>
    <dc:creator>
     <cc:Agent>
      <dc:title>Matplotlib v3.9.4, https://matplotlib.org/</dc:title>
     </cc:Agent>
    </dc:creator>
   </cc:Work>
  </rdf:RDF>
 </metadata>
 <defs>
  <style type="text/css">*{stroke-linejoin: round; stroke-linecap: butt}</style>
 </defs>
 <g id="figure_1">
  <g id="patch_1">
   <path d="M 0 288 
L 1008 288 
L 1008 0 
L 0 0 
z
" style="fill: #ffffff"/>
  </g>
  <g id="axes_1">
   <g id="patch_2">
    <path d="M 48.89 241.72 
L 981.28131 241.72 
L 981.28131 28.32 
L 48.89 28.32 
z
" style="fill: #ffffff"/>
   </g>
   <g id="patch_3">
    <path d="M 48.89 232.02 
L 981.28131 232.02 
L 981.28131 216.5 
L 48.89 216.5 
z
" clip-path="url(#p139a5fa833)" style="fill: #008000; opacity: 0.2"/>
   </g>
   <g id="patch_4">
    <path d="M 48.89 216.5 
L 981.28131 216.5 
L 981.28131 184.166667 
L 48.89 184.166667 
z
" clip-path="url(#p139a5fa833)" style="fill: #ffff00; opacity: 0.2"/>
   </g>
   <g id="patch_5">
    <path d="M 48.89 184.166667 
L 981.28131 184.166667 
L 981.28131 160.886667 
L 48.89 160.886667 
z
" clip-path="url(#p139a5fa833)" style="fill: #ffa500; opacity: 0.2"/>
   </g>
   <g id="patch_6">
    <path d="M 48.89 160.886667 
L 981.28131 160.886667 
L 981.28131 38.02 
L 48.89 38.02 
z
" clip-path="url(#p139a5fa833)" style="fill: #ff0000; opacity: 0.2"/>
   </g>
   <g id="matplotlib.axis_1">
    <g id="xtick_1">
     <g id="line2d_1">
      <defs>
       <path id="mc77d318420" d="M 0 0 
L 0 3.5 
" style="stroke: #000000; stroke-width: 0.8"/>
      </defs>
      <g>
       <use xlink:href="#mc77d318420" x="76.313274" y="241.72" style="stroke: #000000; stroke-width: 0.8"/>
      </g>
     </g>
    </g>
    <g id="xtick_2">
     <g id="line2d_2">
      <g>
       <use xlink:href="#mc77d318420" x="225.894767" y="241.72" style="stroke: #000000; stroke-width: 0.8"/>
      </g>
     </g>
    </g>
    <g id="xtick_3">
     <g id="line2d_3">
      <g>
       <use xlink:href="#mc77d318420" x="375.476261" y="241.72" style="stroke: #000000; stroke-width: 0.8"/>
      </g>
     </g>
    </g>
    <g id="xtick_4">
     <g id="line2d_4">
      <g>
       <use xlink:href="#mc77d318420" x="525.057755" y="241.72" style="stroke: #000000; stroke-width: 0.8"/>
      </g>
     </g>
    </g>
    <g id="xtick_5">
     <g id="line2d_5">
      <g>
       <use xlink:href="#mc77d318420" x="674.639248" y="241.72" style="stroke: #000000; stroke-width: 0.8"/>
      </g>
     </g>
    </g>
    <g id="xtick_6">
     <g id="line2d_6">
      <g>
       <use xlink:href="#mc77d318420" x="824.220742" y="241.72" style="stroke: #000000; stroke-width: 0.8"/>
      </g>
     </g>
    </g>
    <g id="xtick_7">
     <g id="line2d_7">
      <g>
       <use xlink:href="#mc77d318420" x="973.802235" y="241.72" style="stroke: #000000; stroke-width: 0.8"/>
      </g>
     </g>
    </g>
    <g id="text_1">
     <!-- Tiempo -->
     <g transform="translate(487.384874 260.617656) scale(0.15 -0.15)">
      <defs>
       <path id="DejaVuSans-54" d="M -19 4666 
L 3928 4666 
L 3928 4134 
L 2272 4134 
L 2272 0 
L 1638 0 
L 1638 4134 
L -19 4134 
L -19 4666 
z
" transform="scale(0.015625)"/>
       <path id="DejaVuSans-69" d="M 603 3500 
L 1178 3500 
L 1178 0 
L 603 0 
L 603 3500 
z
M 603 4863 
L 1178 4863 
L 1178 4134 
L 603 4134 
L 603 4863 
z
" transform="scale(0.015625)"/>
       <path id="DejaVuSans-65" d="M 3597 1894 
L 3597 1613 
L 953 1613 
Q 991 1019 1311 708 
Q 1631 397 2203 397 
Q 2534 397 2845 478 
Q 3156 559 3463 722 
L 3463 178 
Q 3153 47 2828 -22 
Q 2503 -91 2169 -91 
Q 1331 -91 842 396 
Q 353 884 353 1716 
Q 353 2575 817 3079 
Q 1281 3584 2069 3584 
Q 2775 3584 3186 3129 
Q 3597 2675 3597 1894 
z
M 3022 2063 
Q 3016 2534 2758 2815 
Q 2500 3097 2075 3097 
Q 1594 3097 1305 2825 
Q 1016 2553 972 2059 
L 3022 2063 
z
" transform="scale(0.015625)"/>
       <path id="DejaVuSans-6d" d="M 3328 2828 
Q 3544 3216 3844 3400 
Q 4144 3584 4550 3584 
Q 5097 3584 5394 3201 
Q 5691 2819 5691 2113 
L 5691 0 
L 5113 0 
L 5113 2094 
Q 5113 2597 4934 2840 
Q 4756 3084 4391 3084 
Q 3944 3084 3684 2787 
Q 3425 2491 3425 1978 
L 3425 0 
L 2847 0 
L 2847 2094 
Q 2847 2600 2669 2842 
Q 2491 3084 2119 3084 
Q 1678 3084 1418 2786 
Q 1159 2488 1159 1978 
L 1159 0 
L 581 0 
L 581 3500 
L 1159 3500 
L 1159 2956 
Q 1356 3278 1631 3431 
Q 1906 3584 2284 3584 
Q 2666 3584 2933 3390 
Q 3200 3197 3328 2828 
z
" transform="scale(0.015625)"/>
       <path id="DejaVuSans-70" d="M 1159 525 
L 1159 -1331 
L 581 -1331 
L 581 3500 
L 1159 3500 
L 1159 2969 
Q 1341 3281 1617 3432 
Q 1894 3584 2278 3584 
Q 2916 3584 3314 3078 
Q 3713 2572 3713 1747 
Q 3713 922 3314 415 
Q 2916 -91 2278 -91 
Q 1894 -91 1617 61 
Q 1341 213 1159 525 
z
M 3116 1747 
Q 3116 2381 2855 2742 
Q 2594 3103 2138 3103 
Q 1681 3103 1420 2742 
Q 1159 2381 1159 1747 
Q 1159 1113 1420 752 
Q 1681 391 2138 391 
Q 2594 391 2855 752 
Q 3116 1113 3116 1747 
z
" transform="scale(0.015625)"/>
       <path id="DejaVuSans-6f" d="M 1959 3097 
Q 1497 3097 1228 2736 
Q 959 2375 959 1747 
Q 959 1119 1226 758 
Q 1494 397 1959 397 
Q 2419 397 2687 759 
Q 2956 1122 2956 1747 
Q 2956 2369 2687 2733 
Q 2419 3097 1959 3097 
z
M 1959 3584 
Q 2709 3584 3137 3096 
Q 3566 2609 3566 1747 
Q 3566 888 3137 398 
Q 2709 -91 1959 -91 
Q 1206 -91 779 398 
Q 353 888 353 1747 
Q 353 2609 779 3096 
Q 1206 3584 1959 3584 
z
" transform="scale(0.015625)"/>
      </defs>
      <use xlink:href="#DejaVuSans-54"/>
      <use xlink:href="#DejaVuSans-69" x="57.958984"/>
      <use xlink:href="#DejaVuSans-65" x="85.742188"/>
      <use xlink:href="#DejaVuSans-6d" x="147.265625"/>
      <use xlink:href="#DejaVuSans-70" x="244.677734"/>
      <use xlink:href="#DejaVuSans-6f" x="308.154297"/>
     </g>
    </g>
   </g>
   <g id="matplotlib.axis_2">
    <g id="ytick_1">
     <g id="line2d_8">
      <defs>
       <path id="m4864136ded" d="M 0 0 
L -3.5 0 
" style="stroke: #000000; stroke-width: 0.8"/>
      </defs>
      <g>
       <use xlink:href="#m4864136ded" x="48.89" y="232.02" style="stroke: #000000; stroke-width: 0.8"/>
      </g>
     </g>
     <g id="text_2">
      <!-- 0 -->
      <g transform="translate(32.34625 237.718828) scale(0.15 -0.15)">
       <defs>
        <path id="DejaVuSans-30" d="M 2034 4250 
Q 1547 4250 1301 3770 
Q 1056 3291 1056 2328 
Q 1056 1369 1301 889 
Q 1547 409 2034 409 
Q 2525 409 2770 889 
Q 3016 1369 3016 2328 
Q 3016 3291 2770 3770 
Q 2525 4250 2034 4250 
z
M 2034 4750 
Q 2819 4750 3233 4129 
Q 3647 3509 3647 2328 
Q 3647 1150 3233 529 
Q 2819 -91 2034 -91 
Q 1250 -91 836 529 
Q 422 1150 422 2328 
Q 422 3509 836 4129 
Q 1250 4750 2034 4750 
z
" transform="scale(0.015625)"/>
       </defs>
       <use xlink:href="#DejaVuSans-30"/>
      </g>
     </g>
    </g>
    <g id="ytick_2">
     <g id="line2d_9">
      <g>
       <use xlink:href="#m4864136ded" x="48.89" y="199.686667" style="stroke: #000000; stroke-width: 0.8"/>
      </g>
     </g>
     <g id="text_3">
      <!-- 25 -->
      <g transform="translate(22.8025 205.385495) scale(0.15 -0.15)">
       <defs>
        <path id="DejaVuSans-32" d="M 1228 531 
L 3431 531 
L 3431 0 
L 469 0 
L 469 531 
Q 828 903 1448 1529 
Q 2069 2156 2228 2338 
Q 2531 2678 2651 2914 
Q 2772 3150 2772 3378 
Q 2772 3750 2511 3984 
Q 2250 4219 1831 4219 
Q 1534 4219 1204 4116 
Q 875 4013 500 3803 
L 500 4441 
Q 881 4594 1212 4672 
Q 1544 4750 1819 4750 
Q 2544 4750 2975 4387 
Q 3406 4025 3406 3419 
Q 3406 3131 3298 2873 
Q 3191 2616 2906 2266 
Q 2828 2175 2409 1742 
Q 1991 1309 1228 531 
z
" transform="scale(0.015625)"/>
        <path id="DejaVuSans-35" d="M 691 4666 
L 3169 4666 
L 3169 4134 
L 1269 4134 
L 1269 2991 
Q 1406 3038 1543 3061 
Q 1681 3084 1819 3084 
Q 2600 3084 3056 2656 
Q 3513 2228 3513 1497 
Q 3513 744 3044 326 
Q 2575 -91 1722 -91 
Q 1428 -91 1123 -41 
Q 819 9 494 109 
L 494 744 
Q 775 591 1075 516 
Q 1375 441 1709 441 
Q 2250 441 2565 725 
Q 2881 1009 2881 1497 
Q 2881 1984 2565 2268 
Q 2250 2553 1709 2553 
Q 1456 2553 1204 2497 
Q 953 2441 691 2322 
L 691 4666 
z
" transform="scale(0.015625)"/>
       </defs>
       <use xlink:href="#DejaVuSans-32"/>
       <use xlink:href="#DejaVuSans-35" x="63.623047"/>
      </g>
     </g>
    </g>
    <g id="ytick_3">
     <g id="line2d_10">
      <g>
       <use xlink:href="#m4864136ded" x="48.89" y="167.353333" style="stroke: #000000; stroke-width: 0.8"/>
      </g>
     </g>
     <g id="text_4">
      <!-- 50 -->
      <g transform="translate(22.8025 173.052161) scale(0.15 -0.15)">
       <use xlink:href="#DejaVuSans-35"/>
       <use xlink:href="#DejaVuSans-30" x="63.623047"/>
      </g>
     </g>
    </g>
    <g id="ytick_4">
     <g id="line2d_11">
      <g>
       <use xlink:href="#m4864136ded" x="48.89" y="135.02" style="stroke: #000000; stroke-width: 0.8"/>
      </g>
     </g>
     <g id="text_5">
      <!-- 75 -->
      <g transform="translate(22.8025 140.718828) scale(0.15 -0.15)">
       <defs>
        <path id="DejaVuSans-37" d="M 525 4666 
L 3525 4666 
L 3525 4397 
L 1831 0 
L 1172 0 
L 2766 4134 
L 525 4134 
L 525 4666 
z
" transform="scale(0.015625)"/>
       </defs>
       <use xlink:href="#DejaVuSans-37"/>
       <use xlink:href="#DejaVuSans-35" x="63.623047"/>
      </g>
     </g>
    </g>
    <g id="ytick_5">
     <g id="line2d_12">
      <g>
       <use xlink:href="#m4864136ded" x="48.89" y="102.686667" style="stroke: #000000; stroke-width: 0.8"/>
      </g>
     </g>
     <g id="text_6">
      <!-- 100 -->
      <g transform="translate(13.25875 108.385495) scale(0.15 -0.15)">
       <defs>
        <path id="DejaVuSans-31" d="M 794 531 
L 1825 531 
L 1825 4091 
L 703 3866 
L 703 4441 
L 1819 4666 
L 2450 4666 
L 2450 531 
L 3481 531 
L 3481 0 
L 794 0 
L 794 531 
z
" transform="scale(0.015625)"/>
       </defs>
       <use xlink:href="#DejaVuSans-31"/>
       <use xlink:href="#DejaVuSans-30" x="63.623047"/>
       <use xlink:href="#DejaVuSans-30" x="127.246094"/>
      </g>
     </g>
    </g>
    <g id="ytick_6">
     <g id="line2d_13">
      <g>
       <use xlink:href="#m4864136ded" x="48.89" y="70.353333" style="stroke: #000000; stroke-width: 0.8"/>
      </g>
     </g>
     <g id="text_7">
      <!-- 125 -->
      <g transform="translate(13.25875 76.052161) scale(0.15 -0.15)">
       <use xlink:href="#DejaVuSans-31"/>
       <use xlink:href="#DejaVuSans-32" x="63.623047"/>
       <use xlink:href="#DejaVuSans-35" x="127.246094"/>
      </g>
     </g>
    </g>
    <g id="ytick_7">
     <g id="line2d_14">
      <g>
       <use xlink:href="#m4864136ded" x="48.89" y="38.02" style="stroke: #000000; stroke-width: 0.8"/>
      </g>
     </g>
     <g id="text_8">
      <!-- 150 -->
      <g transform="translate(13.25875 43.718828) scale(0.15 -0.15)">
       <use xlink:href="#DejaVuSans-31"/>
       <use xlink:href="#DejaVuSans-35" x="63.623047"/>
       <use xlink:href="#DejaVuSans-30" x="127.246094"/>
      </g>
     </g>
    </g>
    <g id="text_9">
     <!-- PM2.5 (µg/m³) -->
     <g transform="translate(6.139219 188.548906) rotate(-90) scale(0.15 -0.15)">
      <defs>
       <path id="DejaVuSans-50" d="M 1259 4147 
L 1259 2394 
L 2053 2394 
Q 2494 2394 2734 2622 
Q 2975 2850 2975 3272 
Q 2975 3691 2734 3919 
Q 2494 4147 2053 4147 
L 1259 4147 
z
M 628 4666 
L 2053 4666 
Q 2838 4666 3239 4311 
Q 3641 3956 3641 3272 
Q 3641 2581 3239 2228 
Q 2838 1875 2053 1875 
L 1259 1875 
L 1259 0 
L 628 0 
L 628 4666 
z
" transform="scale(0.015625)"/>
       <path id="DejaVuSans-4d" d="M 628 4666 
L 1569 4666 
L 2759 1491 
L 3956 4666 
L 4897 4666 
L 4897 0 
L 4281 0 
L 4281 4097 
L 3078 897 
L 2444 897 
L 1241 4097 
L 1241 0 
L 628 0 
L 628 4666 
z
" transform="scale(0.015625)"/>
       <path id="DejaVuSans-2e" d="M 684 794 
L 1344 794 
L 1344 0 
L 684 0 
L 684 794 
z
" transform="scale(0.015625)"/>
       <path id="DejaVuSans-20" transform="scale(0.015625)"/>
       <path id="DejaVuSans-28" d="M 1984 4856 
Q 1566 4138 1362 3434 
Q 1159 2731 1159 2009 
Q 1159 1288 1364 580 
Q 1569 -128 1984 -844 
L 1484 -844 
Q 1016 -109 783 600 
Q 550 1309 550 2009 
Q 550 2706 781 3412 
Q 1013 4119 1484 4856 
L 1984 4856 
z
" transform="scale(0.015625)"/>
       <path id="DejaVuSans-b5" d="M 544 -1331 
L 544 3500 
L 1119 3500 
L 1119 1325 
Q 1119 872 1334 640 
Q 1550 409 1972 409 
Q 2434 409 2667 671 
Q 2900 934 2900 1459 
L 2900 3500 
L 3475 3500 
L 3475 806 
Q 3475 619 3529 530 
Q 3584 441 3700 441 
Q 3728 441 3778 458 
Q 3828 475 3916 513 
L 3916 50 
Q 3788 -22 3673 -56 
Q 3559 -91 3450 -91 
Q 3234 -91 3106 31 
Q 2978 153 2931 403 
Q 2775 156 2548 32 
Q 2322 -91 2016 -91 
Q 1697 -91 1473 31 
Q 1250 153 1119 397 
L 1119 -1331 
L 544 -1331 
z
" transform="scale(0.015625)"/>
       <path id="DejaVuSans-67" d="M 2906 1791 
Q 2906 2416 2648 2759 
Q 2391 3103 1925 3103 
Q 1463 3103 1205 2759 
Q 947 2416 947 1791 
Q 947 1169 1205 825 
Q 1463 481 1925 481 
Q 2391 481 2648 825 
Q 2906 1169 2906 1791 
z
M 3481 434 
Q 3481 -459 3084 -895 
Q 2688 -1331 1869 -1331 
Q 1566 -1331 1297 -1286 
Q 1028 -1241 775 -1147 
L 775 -588 
Q 1028 -725 1275 -790 
Q 1522 -856 1778 -856 
Q 2344 -856 2625 -561 
Q 2906 -266 2906 331 
L 2906 616 
Q 2728 306 2450 153 
Q 2172 0 1784 0 
Q 1141 0 747 490 
Q 353 981 353 1791 
Q 353 2603 747 3093 
Q 1141 3584 1784 3584 
Q 2172 3584 2450 3431 
Q 2728 3278 2906 2969 
L 2906 3500 
L 3481 3500 
L 3481 434 
z
" transform="scale(0.015625)"/>
       <path id="DejaVuSans-2f" d="M 1625 4666 
L 2156 4666 
L 531 -594 
L 0 -594 
L 1625 4666 
z
" transform="scale(0.015625)"/>
       <path id="DejaVuSans-b3" d="M 1638 3500 
Q 1925 3444 2083 3273 
Q 2241 3103 2241 2847 
Q 2241 2459 1944 2250 
Q 1647 2041 1094 2041 
Q 916 2041 720 2073 
Q 525 2106 306 2169 
L 306 2547 
Q 469 2463 655 2422 
Q 841 2381 1050 2381 
Q 1391 2381 1578 2504 
Q 1766 2628 1766 2847 
Q 1766 3078 1592 3197 
Q 1419 3316 1081 3316 
L 813 3316 
L 813 3653 
L 1106 3653 
Q 1400 3653 1551 3751 
Q 1703 3850 1703 4038 
Q 1703 4219 1547 4314 
Q 1391 4409 1094 4409 
Q 969 4409 809 4381 
Q 650 4353 397 4281 
L 397 4641 
Q 625 4694 825 4722 
Q 1025 4750 1197 4750 
Q 1647 4750 1911 4565 
Q 2175 4381 2175 4072 
Q 2175 3856 2034 3706 
Q 1894 3556 1638 3500 
z
" transform="scale(0.015625)"/>
       <path id="DejaVuSans-29" d="M 513 4856 
L 1013 4856 
Q 1481 4119 1714 3412 
Q 1947 2706 1947 2009 
Q 1947 1309 1714 600 
Q 1481 -109 1013 -844 
L 513 -844 
Q 928 -128 1133 580 
Q 1338 1288 1338 2009 
Q 1338 2731 1133 3434 
Q 928 4138 513 4856 
z
" transform="scale(0.015625)"/>
      </defs>
      <use xlink:href="#DejaVuSans-50"/>
      <use xlink:href="#DejaVuSans-4d" x="60.302734"/>
      <use xlink:href="#DejaVuSans-32" x="146.582031"/>
      <use xlink:href="#DejaVuSans-2e" x="210.205078"/>
      <use xlink:href="#DejaVuSans-35" x="241.992188"/>
      <use xlink:href="#DejaVuSans-20" x="305.615234"/>
      <use xlink:href="#DejaVuSans-28" x="337.402344"/>
      <use xlink:href="#DejaVuSans-b5" x="376.416016"/>
      <use xlink:href="#DejaVuSans-67" x="440.039062"/>
      <use xlink:href="#DejaVuSans-2f" x="503.515625"/>
      <use xlink:href="#DejaVuSans-6d" x="537.207031"/>
      <use xlink:href="#DejaVuSans-b3" x="634.619141"/>
      <use xlink:href="#DejaVuSans-29" x="674.707031"/>
     </g>
    </g>
   </g>
   <g id="line2d_15">
    <path d="M 48.89 206.153333 
L 50.136512 211.326667 
L 52.629537 219.086667 
L 55.122562 216.5 
L 56.369075 210.033333 
L 57.615587 204.86 
L 58.8621 202.273333 
L 60.108612 204.86 
L 61.355124 208.74 
L 63.848149 213.913333 
L 66.341174 216.5 
L 67.587687 215.206667 
L 68.834199 219.086667 
L 70.080712 221.673333 
L 71.327224 220.38 
L 72.573736 220.38 
L 75.066761 222.966667 
L 77.559786 222.966667 
L 80.052811 220.38 
L 81.299324 220.38 
L 82.545836 221.673333 
L 83.792349 221.673333 
L 85.038861 222.966667 
L 90.024911 222.966667 
L 91.271423 224.26 
L 92.517936 222.966667 
L 96.257473 222.966667 
L 97.503985 225.553333 
L 101.243523 225.553333 
L 102.490035 224.26 
L 103.736548 221.673333 
L 106.229573 219.086667 
L 107.476085 216.5 
L 108.722597 215.206667 
L 111.215622 215.206667 
L 113.708647 222.966667 
L 116.201672 225.553333 
L 117.448185 225.553333 
L 118.694697 224.26 
L 119.941209 226.846667 
L 122.434234 224.26 
L 123.680747 221.673333 
L 124.927259 221.673333 
L 126.173772 219.086667 
L 127.420284 220.38 
L 129.913309 220.38 
L 131.159822 221.673333 
L 133.652846 221.673333 
L 134.899359 222.966667 
L 136.145871 221.673333 
L 137.392384 224.26 
L 138.638896 221.673333 
L 139.885409 217.793333 
L 141.131921 166.06 
L 142.378433 142.78 
L 143.624946 173.82 
L 144.871458 181.58 
L 146.117971 184.166667 
L 148.610996 199.686667 
L 149.857508 200.98 
L 151.104021 206.153333 
L 152.350533 198.393333 
L 153.597046 186.753333 
L 154.843558 181.58 
L 156.09007 180.286667 
L 157.336583 190.633333 
L 158.583095 195.806667 
L 159.829608 199.686667 
L 161.07612 197.1 
L 162.322633 202.273333 
L 163.569145 200.98 
L 164.815657 203.566667 
L 166.06217 208.74 
L 171.04822 213.913333 
L 172.294732 216.5 
L 173.541245 220.38 
L 176.03427 220.38 
L 177.280782 221.673333 
L 178.527294 220.38 
L 179.773807 217.793333 
L 181.020319 216.5 
L 182.266832 213.913333 
L 183.513344 215.206667 
L 184.759857 212.62 
L 186.006369 215.206667 
L 189.745906 215.206667 
L 190.992419 212.62 
L 192.238931 211.326667 
L 193.485444 204.86 
L 194.731956 206.153333 
L 195.978469 208.74 
L 197.224981 206.153333 
L 198.471494 207.446667 
L 200.964518 207.446667 
L 202.211031 210.033333 
L 204.704056 210.033333 
L 208.443593 217.793333 
L 210.936618 220.38 
L 212.183131 217.793333 
L 213.429643 217.793333 
L 214.676155 213.913333 
L 215.922668 211.326667 
L 217.16918 206.153333 
L 218.415693 207.446667 
L 219.662205 210.033333 
L 220.908718 210.033333 
L 222.15523 211.326667 
L 223.401742 211.326667 
L 224.648255 213.913333 
L 225.894767 212.62 
L 227.14128 216.5 
L 228.387792 211.326667 
L 232.12733 203.566667 
L 233.373842 207.446667 
L 234.620355 206.153333 
L 238.359892 198.393333 
L 239.606404 197.1 
L 240.852917 198.393333 
L 242.099429 202.273333 
L 243.345942 204.86 
L 244.592454 210.033333 
L 245.838967 210.033333 
L 247.085479 213.913333 
L 248.331991 210.033333 
L 252.071529 213.913333 
L 253.318041 216.5 
L 254.564554 213.913333 
L 255.811066 219.086667 
L 258.304091 221.673333 
L 260.797116 221.673333 
L 262.043628 222.966667 
L 263.290141 225.553333 
L 264.536653 225.553333 
L 265.783166 224.26 
L 270.769215 224.26 
L 272.015728 225.553333 
L 273.26224 225.553333 
L 274.508753 226.846667 
L 277.001778 224.26 
L 278.24829 224.26 
L 279.494803 219.086667 
L 280.741315 211.326667 
L 283.23434 219.086667 
L 285.727365 216.5 
L 286.973877 210.033333 
L 288.22039 204.86 
L 289.466902 202.273333 
L 290.713415 204.86 
L 291.959927 208.74 
L 294.452952 213.913333 
L 296.945977 216.5 
L 298.192489 215.206667 
L 299.439002 219.086667 
L 300.685514 221.673333 
L 301.932027 220.38 
L 303.178539 220.38 
L 305.671564 222.966667 
L 308.164589 222.966667 
L 310.657614 220.38 
L 311.904126 220.38 
L 313.150639 221.673333 
L 314.397151 221.673333 
L 315.643664 222.966667 
L 320.629713 222.966667 
L 321.876226 219.086667 
L 323.122738 220.38 
L 324.369251 219.086667 
L 325.615763 219.086667 
L 326.862276 217.793333 
L 328.108788 220.38 
L 330.601813 222.966667 
L 331.848325 221.673333 
L 333.094838 216.5 
L 334.34135 207.446667 
L 335.587863 202.273333 
L 336.834375 202.273333 
L 338.080888 203.566667 
L 339.3274 207.446667 
L 340.573913 210.033333 
L 341.820425 208.74 
L 343.066937 211.326667 
L 344.31345 207.446667 
L 346.806475 207.446667 
L 348.052987 206.153333 
L 349.2995 210.033333 
L 350.546012 212.62 
L 353.039037 215.206667 
L 355.532062 215.206667 
L 358.025087 210.033333 
L 359.271599 210.033333 
L 360.518112 211.326667 
L 363.011137 216.5 
L 364.257649 215.206667 
L 365.504161 215.206667 
L 366.750674 211.326667 
L 367.997186 208.74 
L 369.243699 204.86 
L 370.490211 206.153333 
L 371.736724 211.326667 
L 372.983236 211.326667 
L 374.229748 213.913333 
L 375.476261 212.62 
L 376.722773 208.74 
L 377.969286 207.446667 
L 379.215798 200.98 
L 380.462311 197.1 
L 382.955336 199.686667 
L 385.448361 199.686667 
L 386.694873 200.98 
L 387.941386 198.393333 
L 389.187898 198.393333 
L 391.680923 203.566667 
L 395.42046 215.206667 
L 397.913485 217.793333 
L 399.159997 216.5 
L 400.40651 217.793333 
L 401.653022 213.913333 
L 402.899535 208.74 
L 404.146047 204.86 
L 405.39256 204.86 
L 406.639072 206.153333 
L 407.885585 208.74 
L 409.132097 208.74 
L 410.37861 207.446667 
L 411.625122 202.273333 
L 412.871634 200.98 
L 414.118147 198.393333 
L 415.364659 203.566667 
L 416.611172 204.86 
L 417.857684 208.74 
L 419.104197 210.033333 
L 420.350709 208.74 
L 421.597221 211.326667 
L 422.843734 207.446667 
L 424.090246 207.446667 
L 425.336759 202.273333 
L 426.583271 202.273333 
L 427.829784 203.566667 
L 429.076296 208.74 
L 430.322809 210.033333 
L 431.569321 213.913333 
L 432.815834 215.206667 
L 434.062346 217.793333 
L 435.308858 216.5 
L 436.555371 219.086667 
L 437.801883 219.086667 
L 439.048396 220.38 
L 441.541421 220.38 
L 445.280958 224.26 
L 447.773983 224.26 
L 449.020495 222.966667 
L 450.267008 222.966667 
L 451.51352 225.553333 
L 452.760033 225.553333 
L 456.49957 221.673333 
L 457.746082 221.673333 
L 458.992595 224.26 
L 460.239107 222.966667 
L 461.48562 224.26 
L 462.732132 222.966667 
L 463.978645 222.966667 
L 465.225157 224.26 
L 467.718182 219.086667 
L 468.964694 213.913333 
L 470.211207 213.913333 
L 471.457719 215.206667 
L 472.704232 217.793333 
L 473.950744 216.5 
L 475.197257 217.793333 
L 480.183306 217.793333 
L 481.429819 213.913333 
L 485.169356 213.913333 
L 486.415869 215.206667 
L 487.662381 215.206667 
L 488.908894 213.913333 
L 490.155406 215.206667 
L 492.648431 215.206667 
L 493.894943 216.5 
L 495.141456 219.086667 
L 496.387968 216.5 
L 498.880993 216.5 
L 500.127506 213.913333 
L 502.62053 211.326667 
L 503.867043 208.74 
L 505.113555 210.033333 
L 506.360068 210.033333 
L 508.853093 212.62 
L 510.099605 215.206667 
L 512.59263 217.793333 
L 513.839143 216.5 
L 515.085655 213.913333 
L 516.332168 216.5 
L 518.825192 213.913333 
L 520.071705 208.74 
L 521.318217 198.393333 
L 523.811242 188.046667 
L 525.057755 169.94 
L 526.304267 162.18 
L 527.550779 171.233333 
L 528.797292 177.7 
L 530.043804 185.46 
L 531.290317 191.926667 
L 532.536829 195.806667 
L 533.783342 198.393333 
L 535.029854 198.393333 
L 537.522879 200.98 
L 538.769392 206.153333 
L 540.015904 206.153333 
L 541.262416 207.446667 
L 542.508929 206.153333 
L 543.755441 207.446667 
L 545.001954 207.446667 
L 546.248466 206.153333 
L 549.988003 206.153333 
L 553.727541 213.913333 
L 554.974053 213.913333 
L 556.220566 217.793333 
L 557.467078 220.38 
L 558.713591 225.553333 
L 562.453128 229.433333 
L 566.192665 225.553333 
L 568.68569 225.553333 
L 569.932203 226.846667 
L 571.178715 226.846667 
L 572.425228 224.26 
L 573.67174 225.553333 
L 574.918252 225.553333 
L 577.411277 228.14 
L 578.65779 228.14 
L 579.904302 221.673333 
L 581.150815 219.086667 
L 582.397327 211.326667 
L 583.64384 207.446667 
L 586.136864 215.206667 
L 587.383377 221.673333 
L 588.629889 229.433333 
L 591.122914 229.433333 
L 592.369427 230.726667 
L 596.108964 226.846667 
L 597.355476 220.38 
L 599.848501 210.033333 
L 601.095014 206.153333 
L 603.588039 203.566667 
L 606.081064 206.153333 
L 607.327576 208.74 
L 608.574088 210.033333 
L 609.820601 212.62 
L 611.067113 213.913333 
L 612.313626 213.913333 
L 613.560138 216.5 
L 614.806651 215.206667 
L 616.053163 211.326667 
L 617.299676 200.98 
L 618.546188 202.273333 
L 619.792701 200.98 
L 621.039213 203.566667 
L 622.285725 210.033333 
L 623.532238 212.62 
L 624.77875 212.62 
L 626.025263 213.913333 
L 627.271775 213.913333 
L 631.011312 217.793333 
L 634.75085 217.793333 
L 635.997362 216.5 
L 637.243875 213.913333 
L 638.490387 213.913333 
L 639.7369 215.206667 
L 640.983412 217.793333 
L 642.229925 219.086667 
L 643.476437 221.673333 
L 644.72295 222.966667 
L 645.969462 222.966667 
L 648.462487 220.38 
L 649.708999 221.673333 
L 650.955512 221.673333 
L 652.202024 222.966667 
L 653.448537 222.966667 
L 654.695049 224.26 
L 657.188074 219.086667 
L 659.681099 219.086667 
L 660.927611 224.26 
L 662.174124 225.553333 
L 663.420636 225.553333 
L 664.667149 226.846667 
L 665.913661 224.26 
L 667.160174 225.553333 
L 668.406686 224.26 
L 670.899711 224.26 
L 672.146223 222.966667 
L 673.392736 219.086667 
L 674.639248 217.793333 
L 677.132273 217.793333 
L 678.378785 219.086667 
L 679.625298 217.793333 
L 680.87181 219.086667 
L 682.118323 216.5 
L 683.364835 216.5 
L 685.85786 213.913333 
L 687.104373 215.206667 
L 688.350885 217.793333 
L 689.597398 219.086667 
L 692.090422 216.5 
L 695.82996 216.5 
L 697.076472 219.086667 
L 699.569497 219.086667 
L 700.81601 220.38 
L 703.309034 217.793333 
L 705.802059 217.793333 
L 708.295084 222.966667 
L 709.541597 222.966667 
L 713.281134 219.086667 
L 714.527646 219.086667 
L 715.774159 221.673333 
L 718.267184 219.086667 
L 719.513696 219.086667 
L 720.760209 216.5 
L 722.006721 216.5 
L 724.499746 219.086667 
L 725.746258 217.793333 
L 726.992771 190.633333 
L 728.239283 176.406667 
L 729.485796 189.34 
L 731.978821 189.34 
L 734.471846 199.686667 
L 735.718358 202.273333 
L 736.96487 207.446667 
L 738.211383 211.326667 
L 739.457895 216.5 
L 740.704408 220.38 
L 741.95092 219.086667 
L 743.197433 219.086667 
L 744.443945 217.793333 
L 745.690458 221.673333 
L 746.93697 222.966667 
L 748.183483 222.966667 
L 749.429995 225.553333 
L 753.169532 225.553333 
L 754.416045 224.26 
L 755.662557 203.566667 
L 756.90907 191.926667 
L 758.155582 189.34 
L 759.402095 184.166667 
L 760.648607 176.406667 
L 761.895119 171.233333 
L 763.141632 171.233333 
L 764.388144 172.526667 
L 765.634657 176.406667 
L 766.881169 176.406667 
L 768.127682 182.873333 
L 769.374194 188.046667 
L 770.620707 190.633333 
L 773.113732 200.98 
L 774.360244 204.86 
L 776.853269 210.033333 
L 778.099781 213.913333 
L 779.346294 213.913333 
L 780.592806 217.793333 
L 781.839319 216.5 
L 783.085831 217.793333 
L 784.332343 220.38 
L 785.578856 221.673333 
L 786.825368 219.086667 
L 789.318393 216.5 
L 790.564906 212.62 
L 791.811418 206.153333 
L 793.057931 184.166667 
L 794.304443 185.46 
L 795.550956 191.926667 
L 798.04398 197.1 
L 799.290493 200.98 
L 800.537005 206.153333 
L 803.03003 211.326667 
L 804.276543 212.62 
L 805.523055 212.62 
L 806.769567 216.5 
L 808.01608 216.5 
L 809.262592 221.673333 
L 810.509105 221.673333 
L 813.00213 224.26 
L 814.248642 224.26 
L 815.495155 222.966667 
L 816.741667 222.966667 
L 817.98818 221.673333 
L 819.234692 222.966667 
L 820.481205 225.553333 
L 821.727717 226.846667 
L 826.713767 226.846667 
L 827.960279 228.14 
L 831.699816 228.14 
L 832.946329 229.433333 
L 835.439354 229.433333 
L 839.178891 225.553333 
L 840.425404 226.846667 
L 841.671916 225.553333 
L 842.918429 225.553333 
L 846.657966 221.673333 
L 847.904478 221.673333 
L 849.150991 222.966667 
L 850.397503 221.673333 
L 851.644016 221.673333 
L 852.890528 220.38 
L 854.13704 221.673333 
L 855.383553 221.673333 
L 856.630065 224.26 
L 857.876578 225.553333 
L 860.369603 222.966667 
L 861.616115 219.086667 
L 862.862628 216.5 
L 864.10914 217.793333 
L 865.355653 217.793333 
L 866.602165 220.38 
L 869.09519 210.033333 
L 870.341702 200.98 
L 871.588215 194.513333 
L 872.834727 194.513333 
L 874.08124 200.98 
L 875.327752 203.566667 
L 877.820777 206.153333 
L 881.560314 206.153333 
L 882.806827 202.273333 
L 887.792877 202.273333 
L 889.039389 207.446667 
L 890.285901 206.153333 
L 891.532414 208.74 
L 892.778926 207.446667 
L 894.025439 204.86 
L 896.518464 210.033333 
L 899.011489 210.033333 
L 900.258001 212.62 
L 901.504514 216.5 
L 902.751026 221.673333 
L 903.997538 222.966667 
L 905.244051 221.673333 
L 906.490563 222.966667 
L 907.737076 225.553333 
L 908.983588 226.846667 
L 910.230101 226.846667 
L 911.476613 225.553333 
L 912.723126 222.966667 
L 915.21615 220.38 
L 917.709175 222.966667 
L 918.955688 222.966667 
L 921.448713 220.38 
L 923.941738 225.553333 
L 925.18825 224.26 
L 928.927787 224.26 
L 930.1743 222.966667 
L 932.667325 222.966667 
L 933.913837 217.793333 
L 935.16035 213.913333 
L 936.406862 208.74 
L 937.653374 211.326667 
L 943.885937 217.793333 
L 945.132449 217.793333 
L 948.871987 210.033333 
L 950.118499 211.326667 
L 951.365011 213.913333 
L 952.611524 215.206667 
L 953.858036 215.206667 
L 956.351061 220.38 
L 960.090598 220.38 
L 961.337111 221.673333 
L 963.830136 219.086667 
L 966.323161 221.673333 
L 967.569673 225.553333 
L 968.816186 225.553333 
L 970.062698 226.846667 
L 971.309211 226.846667 
L 972.555723 228.14 
L 973.802235 230.726667 
L 975.048748 232.02 
L 976.29526 232.02 
L 977.541773 229.433333 
L 978.788285 230.726667 
L 980.034798 229.433333 
L 981.28131 232.02 
L 981.28131 232.02 
" clip-path="url(#p139a5fa833)" style="fill: none; stroke: #1f77b4; stroke-width: 1.5; stroke-linecap: square"/>
   </g>
   <g id="patch_7">
    <path d="M 48.89 241.72 
L 48.89 28.32 
" style="fill: none; stroke: #000000; stroke-width: 0.8; stroke-linejoin: miter; stroke-linecap: square"/>
   </g>
   <g id="patch_8">
    <path d="M 981.28131 241.72 
L 981.28131 28.32 
" style="fill: none; stroke: #000000; stroke-width: 0.8; stroke-linejoin: miter; stroke-linecap: square"/>
   </g>
   <g id="patch_9">
    <path d="M 48.89 241.72 
L 981.28131 241.72 
" style="fill: none; stroke: #000000; stroke-width: 0.8; stroke-linejoin: miter; stroke-linecap: square"/>
   </g>
   <g id="patch_10">
    <path d="M 48.89 28.32 
L 981.28131 28.32 
" style="fill: none; stroke: #000000; stroke-width: 0.8; stroke-linejoin: miter; stroke-linecap: square"/>
   </g>
   <g id="text_10">
    <!-- San Mateo - Portal 80 -->
    <g transform="translate(434.437218 22.32) scale(0.15 -0.15)">
     <defs>
      <path id="DejaVuSans-53" d="M 3425 4513 
L 3425 3897 
Q 3066 4069 2747 4153 
Q 2428 4238 2131 4238 
Q 1616 4238 1336 4038 
Q 1056 3838 1056 3469 
Q 1056 3159 1242 3001 
Q 1428 2844 1947 2747 
L 2328 2669 
Q 3034 2534 3370 2195 
Q 3706 1856 3706 1288 
Q 3706 609 3251 259 
Q 2797 -91 1919 -91 
Q 1588 -91 1214 -16 
Q 841 59 441 206 
L 441 856 
Q 825 641 1194 531 
Q 1563 422 1919 422 
Q 2459 422 2753 634 
Q 3047 847 3047 1241 
Q 3047 1584 2836 1778 
Q 2625 1972 2144 2069 
L 1759 2144 
Q 1053 2284 737 2584 
Q 422 2884 422 3419 
Q 422 4038 858 4394 
Q 1294 4750 2059 4750 
Q 2388 4750 2728 4690 
Q 3069 4631 3425 4513 
z
" transform="scale(0.015625)"/>
      <path id="DejaVuSans-61" d="M 2194 1759 
Q 1497 1759 1228 1600 
Q 959 1441 959 1056 
Q 959 750 1161 570 
Q 1363 391 1709 391 
Q 2188 391 2477 730 
Q 2766 1069 2766 1631 
L 2766 1759 
L 2194 1759 
z
M 3341 1997 
L 3341 0 
L 2766 0 
L 2766 531 
Q 2569 213 2275 61 
Q 1981 -91 1556 -91 
Q 1019 -91 701 211 
Q 384 513 384 1019 
Q 384 1609 779 1909 
Q 1175 2209 1959 2209 
L 2766 2209 
L 2766 2266 
Q 2766 2663 2505 2880 
Q 2244 3097 1772 3097 
Q 1472 3097 1187 3025 
Q 903 2953 641 2809 
L 641 3341 
Q 956 3463 1253 3523 
Q 1550 3584 1831 3584 
Q 2591 3584 2966 3190 
Q 3341 2797 3341 1997 
z
" transform="scale(0.015625)"/>
      <path id="DejaVuSans-6e" d="M 3513 2113 
L 3513 0 
L 2938 0 
L 2938 2094 
Q 2938 2591 2744 2837 
Q 2550 3084 2163 3084 
Q 1697 3084 1428 2787 
Q 1159 2491 1159 1978 
L 1159 0 
L 581 0 
L 581 3500 
L 1159 3500 
L 1159 2956 
Q 1366 3272 1645 3428 
Q 1925 3584 2291 3584 
Q 2894 3584 3203 3211 
Q 3513 2838 3513 2113 
z
" transform="scale(0.015625)"/>
      <path id="DejaVuSans-74" d="M 1172 4494 
L 1172 3500 
L 2356 3500 
L 2356 3053 
L 1172 3053 
L 1172 1153 
Q 1172 725 1289 603 
Q 1406 481 1766 481 
L 2356 481 
L 2356 0 
L 1766 0 
Q 1100 0 847 248 
Q 594 497 594 1153 
L 594 3053 
L 172 3053 
L 172 3500 
L 594 3500 
L 594 4494 
L 1172 4494 
z
" transform="scale(0.015625)"/>
      <path id="DejaVuSans-2d" d="M 313 2009 
L 1997 2009 
L 1997 1497 
L 313 1497 
L 313 2009 
z
" transform="scale(0.015625)"/>
      <path id="DejaVuSans-72" d="M 2631 2963 
Q 2534 3019 2420 3045 
Q 2306 3072 2169 3072 
Q 1681 3072 1420 2755 
Q 1159 2438 1159 1844 
L 1159 0 
L 581 0 
L 581 3500 
L 1159 3500 
L 1159 2956 
Q 1341 3275 1631 3429 
Q 1922 3584 2338 3584 
Q 2397 3584 2469 3576 
Q 2541 3569 2628 3553 
L 2631 2963 
z
" transform="scale(0.015625)"/>
      <path id="DejaVuSans-6c" d="M 603 4863 
L 1178 4863 
L 1178 0 
L 603 0 
L 603 4863 
z
" transform="scale(0.015625)"/>
      <path id="DejaVuSans-38" d="M 2034 2216 
Q 1584 2216 1326 1975 
Q 1069 1734 1069 1313 
Q 1069 891 1326 650 
Q 1584 409 2034 409 
Q 2484 409 2743 651 
Q 3003 894 3003 1313 
Q 3003 1734 2745 1975 
Q 2488 2216 2034 2216 
z
M 1403 2484 
Q 997 2584 770 2862 
Q 544 3141 544 3541 
Q 544 4100 942 4425 
Q 1341 4750 2034 4750 
Q 2731 4750 3128 4425 
Q 3525 4100 3525 3541 
Q 3525 3141 3298 2862 
Q 3072 2584 2669 2484 
Q 3125 2378 3379 2068 
Q 3634 1759 3634 1313 
Q 3634 634 3220 271 
Q 2806 -91 2034 -91 
Q 1263 -91 848 271 
Q 434 634 434 1313 
Q 434 1759 690 2068 
Q 947 2378 1403 2484 
z
M 1172 3481 
Q 1172 3119 1398 2916 
Q 1625 2713 2034 2713 
Q 2441 2713 2670 2916 
Q 2900 3119 2900 3481 
Q 2900 3844 2670 4047 
Q 2441 4250 2034 4250 
Q 1625 4250 1398 4047 
Q 1172 3844 1172 3481 
z
" transform="scale(0.015625)"/>
     </defs>
     <use xlink:href="#DejaVuSans-53"/>
     <use xlink:href="#DejaVuSans-61" x="63.476562"/>
     <use xlink:href="#DejaVuSans-6e" x="124.755859"/>
     <use xlink:href="#DejaVuSans-20" x="188.134766"/>
     <use xlink:href="#DejaVuSans-4d" x="219.921875"/>
     <use xlink:href="#DejaVuSans-61" x="306.201172"/>
     <use xlink:href="#DejaVuSans-74" x="367.480469"/>
     <use xlink:href="#DejaVuSans-65" x="406.689453"/>
     <use xlink:href="#DejaVuSans-6f" x="468.212891"/>
     <use xlink:href="#DejaVuSans-20" x="529.394531"/>
     <use xlink:href="#DejaVuSans-2d" x="561.181641"/>
     <use xlink:href="#DejaVuSans-20" x="597.265625"/>
     <use xlink:href="#DejaVuSans-50" x="629.052734"/>
     <use xlink:href="#DejaVuSans-6f" x="685.730469"/>
     <use xlink:href="#DejaVuSans-72" x="746.912109"/>
     <use xlink:href="#DejaVuSans-74" x="788.025391"/>
     <use xlink:href="#DejaVuSans-61" x="827.234375"/>
     <use xlink:href="#DejaVuSans-6c" x="888.513672"/>
     <use xlink:href="#DejaVuSans-20" x="916.296875"/>
     <use xlink:href="#DejaVuSans-38" x="948.083984"/>
     <use xlink:href="#DejaVuSans-30" x="1011.707031"/>
    </g>
   </g>
   <g id="legend_1">
    <g id="patch_11">
     <path d="M 652.29081 124.63125 
L 971.20131 124.63125 
Q 974.08131 124.63125 974.08131 121.75125 
L 974.08131 38.4 
Q 974.08131 35.52 971.20131 35.52 
L 652.29081 35.52 
Q 649.41081 35.52 649.41081 38.4 
L 649.41081 121.75125 
Q 649.41081 124.63125 652.29081 124.63125 
z
" style="fill: #ffffff; opacity: 0.8; stroke: #cccccc; stroke-linejoin: miter"/>
    </g>
    <g id="patch_12">
     <path d="M 655.17081 52.22175 
L 683.97081 52.22175 
L 683.97081 42.14175 
L 655.17081 42.14175 
z
" style="fill: #008000; opacity: 0.2"/>
    </g>
    <g id="text_11">
     <!-- Buena -->
     <g transform="translate(695.49081 52.22175) scale(0.144 -0.144)">
      <defs>
       <path id="DejaVuSans-42" d="M 1259 2228 
L 1259 519 
L 2272 519 
Q 2781 519 3026 730 
Q 3272 941 3272 1375 
Q 3272 1813 3026 2020 
Q 2781 2228 2272 2228 
L 1259 2228 
z
M 1259 4147 
L 1259 2741 
L 2194 2741 
Q 2656 2741 2882 2914 
Q 3109 3088 3109 3444 
Q 3109 3797 2882 3972 
Q 2656 4147 2194 4147 
L 1259 4147 
z
M 628 4666 
L 2241 4666 
Q 2963 4666 3353 4366 
Q 3744 4066 3744 3513 
Q 3744 3084 3544 2831 
Q 3344 2578 2956 2516 
Q 3422 2416 3680 2098 
Q 3938 1781 3938 1306 
Q 3938 681 3513 340 
Q 3088 0 2303 0 
L 628 0 
L 628 4666 
z
" transform="scale(0.015625)"/>
       <path id="DejaVuSans-75" d="M 544 1381 
L 544 3500 
L 1119 3500 
L 1119 1403 
Q 1119 906 1312 657 
Q 1506 409 1894 409 
Q 2359 409 2629 706 
Q 2900 1003 2900 1516 
L 2900 3500 
L 3475 3500 
L 3475 0 
L 2900 0 
L 2900 538 
Q 2691 219 2414 64 
Q 2138 -91 1772 -91 
Q 1169 -91 856 284 
Q 544 659 544 1381 
z
M 1991 3584 
L 1991 3584 
z
" transform="scale(0.015625)"/>
      </defs>
      <use xlink:href="#DejaVuSans-42"/>
      <use xlink:href="#DejaVuSans-75" x="68.603516"/>
      <use xlink:href="#DejaVuSans-65" x="131.982422"/>
      <use xlink:href="#DejaVuSans-6e" x="193.505859"/>
      <use xlink:href="#DejaVuSans-61" x="256.884766"/>
     </g>
    </g>
    <g id="patch_13">
     <path d="M 655.17081 73.35825 
L 683.97081 73.35825 
L 683.97081 63.27825 
L 655.17081 63.27825 
z
" style="fill: #ffff00; opacity: 0.2"/>
    </g>
    <g id="text_12">
     <!-- Aceptable -->
     <g transform="translate(695.49081 73.35825) scale(0.144 -0.144)">
      <defs>
       <path id="DejaVuSans-41" d="M 2188 4044 
L 1331 1722 
L 3047 1722 
L 2188 4044 
z
M 1831 4666 
L 2547 4666 
L 4325 0 
L 3669 0 
L 3244 1197 
L 1141 1197 
L 716 0 
L 50 0 
L 1831 4666 
z
" transform="scale(0.015625)"/>
       <path id="DejaVuSans-63" d="M 3122 3366 
L 3122 2828 
Q 2878 2963 2633 3030 
Q 2388 3097 2138 3097 
Q 1578 3097 1268 2742 
Q 959 2388 959 1747 
Q 959 1106 1268 751 
Q 1578 397 2138 397 
Q 2388 397 2633 464 
Q 2878 531 3122 666 
L 3122 134 
Q 2881 22 2623 -34 
Q 2366 -91 2075 -91 
Q 1284 -91 818 406 
Q 353 903 353 1747 
Q 353 2603 823 3093 
Q 1294 3584 2113 3584 
Q 2378 3584 2631 3529 
Q 2884 3475 3122 3366 
z
" transform="scale(0.015625)"/>
       <path id="DejaVuSans-62" d="M 3116 1747 
Q 3116 2381 2855 2742 
Q 2594 3103 2138 3103 
Q 1681 3103 1420 2742 
Q 1159 2381 1159 1747 
Q 1159 1113 1420 752 
Q 1681 391 2138 391 
Q 2594 391 2855 752 
Q 3116 1113 3116 1747 
z
M 1159 2969 
Q 1341 3281 1617 3432 
Q 1894 3584 2278 3584 
Q 2916 3584 3314 3078 
Q 3713 2572 3713 1747 
Q 3713 922 3314 415 
Q 2916 -91 2278 -91 
Q 1894 -91 1617 61 
Q 1341 213 1159 525 
L 1159 0 
L 581 0 
L 581 4863 
L 1159 4863 
L 1159 2969 
z
" transform="scale(0.015625)"/>
      </defs>
      <use xlink:href="#DejaVuSans-41"/>
      <use xlink:href="#DejaVuSans-63" x="66.658203"/>
      <use xlink:href="#DejaVuSans-65" x="121.638672"/>
      <use xlink:href="#DejaVuSans-70" x="183.162109"/>
      <use xlink:href="#DejaVuSans-74" x="246.638672"/>
      <use xlink:href="#DejaVuSans-61" x="285.847656"/>
      <use xlink:href="#DejaVuSans-62" x="347.126953"/>
      <use xlink:href="#DejaVuSans-6c" x="410.603516"/>
      <use xlink:href="#DejaVuSans-65" x="438.386719"/>
     </g>
    </g>
    <g id="patch_14">
     <path d="M 655.17081 94.74 
L 683.97081 94.74 
L 683.97081 84.66 
L 655.17081 84.66 
z
" style="fill: #ffa500; opacity: 0.2"/>
    </g>
    <g id="text_13">
     <!-- Dañina a la salud de grupos sensibles -->
     <g transform="translate(695.49081 94.74) scale(0.144 -0.144)">
      <defs>
       <path id="DejaVuSans-44" d="M 1259 4147 
L 1259 519 
L 2022 519 
Q 2988 519 3436 956 
Q 3884 1394 3884 2338 
Q 3884 3275 3436 3711 
Q 2988 4147 2022 4147 
L 1259 4147 
z
M 628 4666 
L 1925 4666 
Q 3281 4666 3915 4102 
Q 4550 3538 4550 2338 
Q 4550 1131 3912 565 
Q 3275 0 1925 0 
L 628 0 
L 628 4666 
z
" transform="scale(0.015625)"/>
       <path id="DejaVuSans-f1" d="M 3513 2113 
L 3513 0 
L 2938 0 
L 2938 2094 
Q 2938 2591 2744 2837 
Q 2550 3084 2163 3084 
Q 1697 3084 1428 2787 
Q 1159 2491 1159 1978 
L 1159 0 
L 581 0 
L 581 3500 
L 1159 3500 
L 1159 2956 
Q 1366 3272 1645 3428 
Q 1925 3584 2291 3584 
Q 2894 3584 3203 3211 
Q 3513 2838 3513 2113 
z
M 2060 4281 
L 1881 4453 
Q 1813 4516 1761 4545 
Q 1710 4575 1669 4575 
Q 1550 4575 1494 4461 
Q 1438 4347 1431 4091 
L 1041 4091 
Q 1047 4513 1206 4742 
Q 1366 4972 1650 4972 
Q 1769 4972 1869 4928 
Q 1969 4884 2085 4781 
L 2263 4609 
Q 2331 4547 2383 4517 
Q 2435 4488 2475 4488 
Q 2594 4488 2650 4602 
Q 2706 4716 2713 4972 
L 3103 4972 
Q 3097 4550 2937 4320 
Q 2778 4091 2494 4091 
Q 2375 4091 2275 4134 
Q 2175 4178 2060 4281 
z
" transform="scale(0.015625)"/>
       <path id="DejaVuSans-73" d="M 2834 3397 
L 2834 2853 
Q 2591 2978 2328 3040 
Q 2066 3103 1784 3103 
Q 1356 3103 1142 2972 
Q 928 2841 928 2578 
Q 928 2378 1081 2264 
Q 1234 2150 1697 2047 
L 1894 2003 
Q 2506 1872 2764 1633 
Q 3022 1394 3022 966 
Q 3022 478 2636 193 
Q 2250 -91 1575 -91 
Q 1294 -91 989 -36 
Q 684 19 347 128 
L 347 722 
Q 666 556 975 473 
Q 1284 391 1588 391 
Q 1994 391 2212 530 
Q 2431 669 2431 922 
Q 2431 1156 2273 1281 
Q 2116 1406 1581 1522 
L 1381 1569 
Q 847 1681 609 1914 
Q 372 2147 372 2553 
Q 372 3047 722 3315 
Q 1072 3584 1716 3584 
Q 2034 3584 2315 3537 
Q 2597 3491 2834 3397 
z
" transform="scale(0.015625)"/>
       <path id="DejaVuSans-64" d="M 2906 2969 
L 2906 4863 
L 3481 4863 
L 3481 0 
L 2906 0 
L 2906 525 
Q 2725 213 2448 61 
Q 2172 -91 1784 -91 
Q 1150 -91 751 415 
Q 353 922 353 1747 
Q 353 2572 751 3078 
Q 1150 3584 1784 3584 
Q 2172 3584 2448 3432 
Q 2725 3281 2906 2969 
z
M 947 1747 
Q 947 1113 1208 752 
Q 1469 391 1925 391 
Q 2381 391 2643 752 
Q 2906 1113 2906 1747 
Q 2906 2381 2643 2742 
Q 2381 3103 1925 3103 
Q 1469 3103 1208 2742 
Q 947 2381 947 1747 
z
" transform="scale(0.015625)"/>
      </defs>
      <use xlink:href="#DejaVuSans-44"/>
      <use xlink:href="#DejaVuSans-61" x="77.001953"/>
      <use xlink:href="#DejaVuSans-f1" x="138.28125"/>
      <use xlink:href="#DejaVuSans-69" x="201.660156"/>
      <use xlink:href="#DejaVuSans-6e" x="229.443359"/>
      <use xlink:href="#DejaVuSans-61" x="292.822266"/>
      <use xlink:href="#DejaVuSans-20" x="354.101562"/>
      <use xlink:href="#DejaVuSans-61" x="385.888672"/>
      <use xlink:href="#DejaVuSans-20" x="447.167969"/>
      <use xlink:href="#DejaVuSans-6c" x="478.955078"/>
      <use xlink:href="#DejaVuSans-61" x="506.738281"/>
      <use xlink:href="#DejaVuSans-20" x="568.017578"/>
      <use xlink:href="#DejaVuSans-73" x="599.804688"/>
      <use xlink:href="#DejaVuSans-61" x="651.904297"/>
      <use xlink:href="#DejaVuSans-6c" x="713.183594"/>
      <use xlink:href="#DejaVuSans-75" x="740.966797"/>
      <use xlink:href="#DejaVuSans-64" x="804.345703"/>
      <use xlink:href="#DejaVuSans-20" x="867.822266"/>
      <use xlink:href="#DejaVuSans-64" x="899.609375"/>
      <use xlink:href="#DejaVuSans-65" x="963.085938"/>
      <use xlink:href="#DejaVuSans-20" x="1024.609375"/>
      <use xlink:href="#DejaVuSans-67" x="1056.396484"/>
      <use xlink:href="#DejaVuSans-72" x="1119.873047"/>
      <use xlink:href="#DejaVuSans-75" x="1160.986328"/>
      <use xlink:href="#DejaVuSans-70" x="1224.365234"/>
      <use xlink:href="#DejaVuSans-6f" x="1287.841797"/>
      <use xlink:href="#DejaVuSans-73" x="1349.023438"/>
      <use xlink:href="#DejaVuSans-20" x="1401.123047"/>
      <use xlink:href="#DejaVuSans-73" x="1432.910156"/>
      <use xlink:href="#DejaVuSans-65" x="1485.009766"/>
      <use xlink:href="#DejaVuSans-6e" x="1546.533203"/>
      <use xlink:href="#DejaVuSans-73" x="1609.912109"/>
      <use xlink:href="#DejaVuSans-69" x="1662.011719"/>
      <use xlink:href="#DejaVuSans-62" x="1689.794922"/>
      <use xlink:href="#DejaVuSans-6c" x="1753.271484"/>
      <use xlink:href="#DejaVuSans-65" x="1781.054688"/>
      <use xlink:href="#DejaVuSans-73" x="1842.578125"/>
     </g>
    </g>
    <g id="patch_15">
     <path d="M 655.17081 115.8765 
L 683.97081 115.8765 
L 683.97081 105.7965 
L 655.17081 105.7965 
z
" style="fill: #ff0000; opacity: 0.2"/>
    </g>
    <g id="text_14">
     <!-- Dañina a la salud -->
     <g transform="translate(695.49081 115.8765) scale(0.144 -0.144)">
      <use xlink:href="#DejaVuSans-44"/>
      <use xlink:href="#DejaVuSans-61" x="77.001953"/>
      <use xlink:href="#DejaVuSans-f1" x="138.28125"/>
      <use xlink:href="#DejaVuSans-69" x="201.660156"/>
      <use xlink:href="#DejaVuSans-6e" x="229.443359"/>
      <use xlink:href="#DejaVuSans-61" x="292.822266"/>
      <use xlink:href="#DejaVuSans-20" x="354.101562"/>
      <use xlink:href="#DejaVuSans-61" x="385.888672"/>
      <use xlink:href="#DejaVuSans-20" x="447.167969"/>
      <use xlink:href="#DejaVuSans-6c" x="478.955078"/>
      <use xlink:href="#DejaVuSans-61" x="506.738281"/>
      <use xlink:href="#DejaVuSans-20" x="568.017578"/>
      <use xlink:href="#DejaVuSans-73" x="599.804688"/>
      <use xlink:href="#DejaVuSans-61" x="651.904297"/>
      <use xlink:href="#DejaVuSans-6c" x="713.183594"/>
      <use xlink:href="#DejaVuSans-75" x="740.966797"/>
      <use xlink:href="#DejaVuSans-64" x="804.345703"/>
     </g>
    </g>
   </g>
  </g>
 </g>
 <defs>
  <clipPath id="p139a5fa833">
   <rect x="48.89" y="28.32" width="932.39131" height="213.4"/>
  </clipPath>
 </defs>
</svg>
